<?xml version="1.0" encoding="utf-8"?>
<!-- Generator: Adobe Illustrator 23.0.2, SVG Export Plug-In . SVG Version: 6.00 Build 0)  -->
<svg version="1.1" id="Layer_1" xmlns="http://www.w3.org/2000/svg" xmlns:xlink="http://www.w3.org/1999/xlink" x="0px" y="0px"
	 viewBox="0 0 600 600" style="enable-background:new 0 0 600 600;" xml:space="preserve">
<style type="text/css">
	.st0{fill:#BCBCBC;}
	.st1{fill:#039BE5;}
</style>
<path class="st0" d="M502.7,229.3c-17.9-13.7-39.9-19.6-61.8-16.8c-9.8-51.8-47.4-94.5-98.3-110.3c-36.6-11.4-75.4-7.8-109.2,10
	c-31.5,16.5-55.2,43.5-67.5,76.6c-24.9-1.3-49.5,7.1-68.6,23.8c-21.3,18.5-33.5,45.2-33.5,73.2c0,47.7,35.8,88.9,83.2,95.7l12.3,1.1
	c1.1,0.1,290.9,0.2,291.7,0.2h0.1c47.1-0.1,85.4-38.4,85.4-85.5C536.4,270.9,523.8,245.5,502.7,229.3z"/>
<title>11</title>
<g>
	<path class="st1" d="M260.4,407.5l-16.3,16.3c-6.2,6.2-6.2,16.2,0,22.4l0,0c6.2,6.2,16.2,6.2,22.4,0l16.3-16.3
		c6.2-6.2,6.2-16.2,0-22.4l0,0C276.6,401.3,266.6,401.3,260.4,407.5z"/>
	<path class="st1" d="M199.8,497.4L199.8,497.4c6.2,6.2,16.2,6.2,22.4,0l19.1-19.1c6.2-6.2,6.2-16.2,0-22.4l0,0
		c-6.2-6.2-16.2-6.2-22.4,0L199.8,475C193.6,481.2,193.6,491.2,199.8,497.4z"/>
	<path class="st1" d="M355.9,407.5L355.9,407.5c-6.2-6.2-16.2-6.2-22.4,0l-16.3,16.3c-6.2,6.2-6.2,16.2,0,22.4l0,0
		c6.2,6.2,16.2,6.2,22.4,0l16.3-16.3C362.1,423.6,362.1,413.6,355.9,407.5z"/>
	<path class="st1" d="M269.4,497.4L269.4,497.4c6.2,6.2,16.2,6.2,22.4,0l19.1-19.1c6.2-6.2,6.2-16.2,0-22.4l0,0
		c-6.2-6.2-16.2-6.2-22.4,0L269.4,475C263.3,481.2,263.3,491.2,269.4,497.4z"/>
	<path class="st1" d="M406.6,407.5l-16.3,16.3c-6.2,6.2-6.2,16.2,0,22.4l0,0c6.2,6.2,16.2,6.2,22.4,0l16.3-16.3
		c6.2-6.2,6.2-16.2,0-22.4l0,0C422.8,401.3,412.8,401.3,406.6,407.5z"/>
	<path class="st1" d="M339.1,497.4L339.1,497.4c6.2,6.2,16.2,6.2,22.4,0l19.1-19.1c6.2-6.2,6.2-16.2,0-22.4l0,0
		c-6.2-6.2-16.2-6.2-22.4,0L339.1,475C332.9,481.2,332.9,491.2,339.1,497.4z"/>
	<path class="st1" d="M187.3,407.5L171,423.8c-6.2,6.2-6.2,16.2,0,22.4l0,0c6.2,6.2,16.2,6.2,22.4,0l16.3-16.3
		c6.2-6.2,6.2-16.2,0-22.4l0,0C203.5,401.3,193.5,401.3,187.3,407.5z"/>
</g>
</svg>
