<?xml version="1.0" encoding="utf-8"?>
<!-- Generator: Adobe Illustrator 23.0.2, SVG Export Plug-In . SVG Version: 6.00 Build 0)  -->
<svg version="1.1" id="Layer_1" xmlns="http://www.w3.org/2000/svg" xmlns:xlink="http://www.w3.org/1999/xlink" x="0px" y="0px"
	 viewBox="0 0 600 600" style="enable-background:new 0 0 600 600;" xml:space="preserve">
<style type="text/css">
	.st0{fill:#BCBCBC;}
</style>
<path class="st0" d="M502.7,214.4c-17.9-13.7-39.9-19.6-61.8-16.8c-9.8-51.8-47.4-94.5-98.3-110.3c-36.6-11.4-75.4-7.8-109.2,10
	c-31.5,16.5-55.2,43.5-67.5,76.6c-24.9-1.3-49.5,7.1-68.6,23.8c-21.3,18.5-33.5,45.2-33.5,73.2c0,47.7,35.8,88.9,83.2,95.7l12.3,1.1
	c1.1,0.1,290.9,0.2,291.7,0.2h0.1c47.1-0.1,85.4-38.4,85.4-85.5C536.4,256,523.8,230.6,502.7,214.4z"/>
<title>13</title>
<g>
	<path class="st0" d="M218.7,350.6c-9.2,0-16.6,7.5-16.6,16.6s7.5,16.6,16.6,16.6c9.2,0,16.6-7.5,16.6-16.6S227.9,350.6,218.7,350.6
		z"/>
	<path class="st0" d="M218.7,397.1c-9.2,0-16.6,7.5-16.6,16.6c0,9.2,7.5,16.6,16.6,16.6c9.2,0,16.6-7.5,16.6-16.6
		C235.4,404.5,227.9,397.1,218.7,397.1z"/>
	<path class="st0" d="M218.7,443.5c-9.2,0-16.6,7.5-16.6,16.6c0,9.2,7.5,16.6,16.6,16.6c9.2,0,16.6-7.5,16.6-16.6
		C235.4,450.9,227.9,443.5,218.7,443.5z"/>
	<path class="st0" d="M164,404.8c2.5,1.5,5.4,2.2,8.3,2.2c5.9,0,11.4-3.2,14.4-8.3c4.6-7.9,1.9-18.1-6.1-22.7
		c-2.5-1.5-5.4-2.2-8.3-2.2c-5.9,0-11.4,3.2-14.4,8.3c-2.2,3.8-2.8,8.3-1.7,12.6C157.4,399,160.2,402.6,164,404.8z"/>
	<path class="st0" d="M273.5,422.5c-2.5-1.5-5.4-2.2-8.3-2.2c-5.9,0-11.4,3.2-14.4,8.3c-4.6,7.9-1.9,18.1,6.1,22.7
		c2.5,1.5,5.4,2.2,8.3,2.2c5.9,0,11.4-3.2,14.4-8.3C284.1,437.2,281.4,427.1,273.5,422.5z"/>
	<path class="st0" d="M172.3,420.3c-2.9,0-5.8,0.8-8.3,2.2c-3.8,2.2-6.6,5.8-7.7,10.1c-1.1,4.3-0.6,8.8,1.7,12.6
		c3,5.1,8.5,8.3,14.4,8.3c2.9,0,5.8-0.8,8.3-2.2c3.8-2.2,6.6-5.8,7.7-10.1c1.1-4.3,0.6-8.8-1.7-12.6
		C183.7,423.4,178.2,420.3,172.3,420.3z"/>
	<path class="st0" d="M265.2,373.8c-2.9,0-5.8,0.8-8.3,2.2c-7.9,4.6-10.7,14.8-6.1,22.7c3,5.1,8.5,8.3,14.4,8.3
		c2.9,0,5.8-0.8,8.3-2.2c7.9-4.6,10.7-14.8,6.1-22.7C276.6,377,271.1,373.8,265.2,373.8z"/>
	<path class="st0" d="M381.3,397.1c-9.2,0-16.6,7.5-16.6,16.6c0,9.2,7.5,16.6,16.6,16.6c9.2,0,16.6-7.5,16.6-16.6
		C397.9,404.5,390.4,397.1,381.3,397.1z"/>
	<path class="st0" d="M381.3,443.5c-9.2,0-16.6,7.5-16.6,16.6c0,9.2,7.5,16.6,16.6,16.6c9.2,0,16.6-7.5,16.6-16.6
		C397.9,450.9,390.4,443.5,381.3,443.5z"/>
	<path class="st0" d="M381.3,489.9c-9.2,0-16.6,7.5-16.6,16.6c0,9.2,7.5,16.6,16.6,16.6c9.2,0,16.6-7.5,16.6-16.6
		C397.9,497.4,390.4,489.9,381.3,489.9z"/>
	<path class="st0" d="M343.1,422.5c-2.5-1.5-5.4-2.2-8.3-2.2c-5.9,0-11.4,3.2-14.4,8.3c-4.6,7.9-1.9,18.1,6.1,22.7
		c2.5,1.5,5.4,2.2,8.3,2.2c5.9,0,11.4-3.2,14.4-8.3c2.2-3.8,2.8-8.3,1.7-12.6C349.7,428.3,347,424.7,343.1,422.5z"/>
	<path class="st0" d="M436,468.9c-2.5-1.5-5.4-2.2-8.3-2.2c-5.9,0-11.4,3.2-14.4,8.3c-4.6,7.9-1.9,18.1,6.1,22.7
		c2.5,1.5,5.4,2.2,8.3,2.2c5.9,0,11.4-3.2,14.4-8.3C446.7,483.7,443.9,473.5,436,468.9z"/>
	<path class="st0" d="M334.8,466.7c-2.9,0-5.8,0.8-8.3,2.2c-3.8,2.2-6.6,5.8-7.7,10.1c-1.1,4.3-0.6,8.8,1.7,12.6
		c3,5.1,8.5,8.3,14.4,8.3c2.9,0,5.8-0.8,8.3-2.2c7.9-4.6,10.7-14.8,6.1-22.7C346.3,469.9,340.7,466.7,334.8,466.7z"/>
	<path class="st0" d="M427.7,453.5c2.9,0,5.8-0.8,8.3-2.2c7.9-4.6,10.7-14.8,6.1-22.7c-3-5.1-8.5-8.3-14.4-8.3
		c-2.9,0-5.8,0.8-8.3,2.2c-3.8,2.2-6.6,5.8-7.7,10.1c-1.1,4.3-0.6,8.8,1.7,12.6C416.3,450.3,421.8,453.5,427.7,453.5z"/>
</g>
</svg>
