<?xml version="1.0" encoding="utf-8"?>
<!-- Generator: Adobe Illustrator 23.0.2, SVG Export Plug-In . SVG Version: 6.00 Build 0)  -->
<svg version="1.1" id="Layer_1" xmlns="http://www.w3.org/2000/svg" xmlns:xlink="http://www.w3.org/1999/xlink" x="0px" y="0px"
	 viewBox="0 0 600 600" style="enable-background:new 0 0 600 600;" xml:space="preserve">
<style type="text/css">
	.st0{fill:#BCBCBC;}
	.st1{fill:#63CCFF;}
</style>
<title>15</title>
<g>
	<g>
		<path class="st0" d="M442,307c-9.2,0-16.6,7.5-16.6,16.6s7.5,16.6,16.6,16.6c9.2,0,16.6-7.5,16.6-16.6S451.2,307,442,307z"/>
		<path class="st0" d="M442,353.4c-9.2,0-16.6,7.5-16.6,16.6c0,9.2,7.5,16.6,16.6,16.6c9.2,0,16.6-7.5,16.6-16.6
			S451.2,353.4,442,353.4z"/>
		<path class="st0" d="M442,399.9c-9.2,0-16.6,7.5-16.6,16.6c0,9.2,7.5,16.6,16.6,16.6c9.2,0,16.6-7.5,16.6-16.6
			C458.6,407.3,451.2,399.9,442,399.9z"/>
		<path class="st0" d="M411.5,330.8c-2.5-1.5-5.4-2.2-8.3-2.2c-5.9,0-11.5,3.2-14.4,8.4c-4.6,8-1.8,18.2,6.1,22.7
			c2.5,1.5,5.4,2.2,8.3,2.2c5.9,0,11.5-3.2,14.4-8.4C422.2,345.6,419.5,335.4,411.5,330.8z"/>
		<path class="st0" d="M490.5,378.9c-2.5-1.5-5.4-2.2-8.3-2.2c-5.9,0-11.4,3.2-14.4,8.3c-4.6,7.9-1.9,18.1,6.1,22.7
			c2.5,1.5,5.4,2.2,8.3,2.2c5.9,0,11.4-3.2,14.4-8.3C501.2,393.6,498.5,383.5,490.5,378.9z"/>
		<path class="st0" d="M401.8,376.8c-2.9,0-5.8,0.8-8.3,2.2c-7.9,4.6-10.7,14.8-6.1,22.7c3,5.1,8.5,8.3,14.4,8.3
			c2.9,0,5.8-0.8,8.3-2.2c3.8-2.2,6.6-5.8,7.7-10.1c1.1-4.3,0.6-8.8-1.7-12.6C413.2,379.8,407.7,376.8,401.8,376.8z"/>
		<path class="st0" d="M482.2,363.4c2.9,0,5.8-0.8,8.3-2.2c3.8-2.2,6.6-5.8,7.7-10.1c1.1-4.3,0.6-8.8-1.7-12.6
			c-3-5.1-8.5-8.3-14.4-8.3c-2.9,0-5.8,0.8-8.3,2.2c-7.9,4.6-10.7,14.8-6.1,22.7C470.8,360.3,476.3,363.4,482.2,363.4z"/>
		<path class="st0" d="M209.8,121.3c-9.2,0-16.6,7.5-16.6,16.6c0,9.2,7.5,16.6,16.6,16.6c9.2,0,16.6-7.5,16.6-16.6
			C226.5,128.8,219,121.3,209.8,121.3z"/>
		<path class="st0" d="M209.8,167.8c-9.2,0-16.6,7.5-16.6,16.6c0,9.2,7.5,16.6,16.6,16.6c9.2,0,16.6-7.5,16.6-16.6
			C226.5,175.3,219,167.8,209.8,167.8z"/>
		<path class="st0" d="M209.8,214.1c-9.2,0-16.6,7.5-16.6,16.6s7.5,16.6,16.6,16.6c9.2,0,16.6-7.5,16.6-16.6S219,214.1,209.8,214.1z
			"/>
		<path class="st0" d="M177.9,146.8c-2.5-1.5-5.4-2.2-8.3-2.2c-5.9,0-11.4,3.2-14.4,8.3c-2.2,3.8-2.8,8.3-1.7,12.6
			c1.1,4.3,3.9,7.9,7.7,10.1c2.5,1.5,5.4,2.2,8.3,2.2c5.9,0,11.4-3.2,14.4-8.3C188.6,161.5,185.9,151.4,177.9,146.8z"/>
		<path class="st0" d="M258.4,193.3c-2.5-1.5-5.4-2.2-8.3-2.2c-5.9,0-11.4,3.2-14.4,8.3c-4.6,7.9-1.9,18.1,6.1,22.7
			c2.5,1.5,5.4,2.2,8.3,2.2c5.9,0,11.4-3.2,14.4-8.3c2.2-3.8,2.8-8.3,1.7-12.6C264.9,199,262.2,195.4,258.4,193.3z"/>
		<path class="st0" d="M169.6,190.9c-2.9,0-5.8,0.8-8.3,2.2c-7.9,4.6-10.7,14.8-6.1,22.7c3,5.1,8.5,8.3,14.4,8.3
			c2.9,0,5.8-0.8,8.3-2.2c7.9-4.6,10.7-14.8,6.1-22.7C181,194.1,175.5,190.9,169.6,190.9z"/>
		<path class="st0" d="M250,144.5c-2.9,0-5.8,0.8-8.3,2.2c-7.9,4.6-10.7,14.8-6.1,22.7c3,5.1,8.5,8.3,14.4,8.3
			c2.9,0,5.8-0.8,8.3-2.2c7.9-4.6,10.7-14.8,6.1-22.7C261.5,147.8,256,144.5,250,144.5z"/>
	</g>
	<g>
		<path class="st1" d="M394.7,168.5c-34.2,0.5-61.3,29-61.3,63.2l0,0c0,8.2,6.6,14.8,14.8,14.8h2c8.2,0,14.8-6.6,14.8-14.8v-0.3
			c0-16.7,13.2-30.9,29.9-31.3c17.5-0.4,31.7,13.9,31.3,31.3c-0.4,16.7-14.5,29.9-31.3,29.9H117c-8.7,0-15.8,7.1-15.8,15.8l0,0
			c0,8.7,7.1,15.8,15.8,15.8h278.9l0,0l6.3-0.4h0.3c31.5-3.5,55.3-30.1,55.3-61.9C457.8,196.1,429.4,168,394.7,168.5z"/>
		<path class="st1" d="M263.2,354.6L117,354.3c-8.7,0-15.8,7.1-15.8,15.8l0,0c0,8.7,7.1,15.8,15.8,15.8h138.6
			c16.7,0,30.9,13.2,31.3,29.9c0.5,19.3-17.1,34.7-37,30.7c-14.2-2.9-24.2-15.7-24.3-30.2v-0.4c0-8.4-6.8-15.2-15.2-15.2h-1.2
			c-8.4,0-15.2,6.8-15.2,15.2v0.6c0.1,33.7,27,61.2,60.4,62.2h0.1h0.8c34.2,0,63.2-28,63.2-62.2
			C318.6,384.8,294.8,358.1,263.2,354.6z"/>
		<path class="st1" d="M117,307.8c-8.7,0-15.8,7.1-15.8,15.8l0,0c0,8.7,7.1,15.8,15.8,15.8h232.2c8.7,0,15.8-7.1,15.8-15.8l0,0
			c0-8.7-7.1-15.8-15.8-15.8H117z"/>
	</g>
</g>
</svg>
