<?xml version="1.0" encoding="utf-8"?>
<!-- Generator: Adobe Illustrator 23.0.2, SVG Export Plug-In . SVG Version: 6.00 Build 0)  -->
<svg version="1.1" id="Layer_1" xmlns="http://www.w3.org/2000/svg" xmlns:xlink="http://www.w3.org/1999/xlink" x="0px" y="0px"
	 viewBox="0 0 600 600" style="enable-background:new 0 0 600 600;" xml:space="preserve">
<style type="text/css">
	.st0{fill:#BCBCBC;}
</style>
<title>16</title>
<g>
	<path class="st0" d="M502.6,211.3c-17.9-13.7-39.9-19.6-61.8-16.8c-9.8-51.8-47.4-94.5-98.3-110.3c-36.6-11.4-75.4-7.8-109.2,10
		c-31.5,16.5-55.2,43.5-67.5,76.6c-24.9-1.3-49.5,7.1-68.6,23.8c-21.3,18.5-33.5,45.2-33.5,73.2c0,47.7,35.8,88.9,83.2,95.7
		l12.3,1.1c1.1,0.1,290.9,0.2,291.7,0.2h0.1c47.1-0.1,85.4-38.4,85.4-85.5C536.3,252.9,523.6,227.5,502.6,211.3z"/>
	<g>
		<path class="st0" d="M218.6,349.9c-9.2,0-16.6,7.5-16.6,16.6s7.5,16.6,16.6,16.6c9.2,0,16.6-7.5,16.6-16.6
			S227.8,349.9,218.6,349.9z"/>
		<path class="st0" d="M218.6,396.4c-9.2,0-16.6,7.5-16.6,16.6c0,9.2,7.5,16.6,16.6,16.6c9.2,0,16.6-7.5,16.6-16.6
			C235.3,403.8,227.8,396.4,218.6,396.4z"/>
		<path class="st0" d="M218.6,442.8c-9.2,0-16.6,7.5-16.6,16.6c0,9.2,7.5,16.6,16.6,16.6c9.2,0,16.6-7.5,16.6-16.6
			C235.3,450.2,227.8,442.8,218.6,442.8z"/>
		<path class="st0" d="M182,374.6c-2.5-1.5-5.4-2.2-8.3-2.2c-5.9,0-11.5,3.2-14.4,8.4c-2.2,3.9-2.8,8.3-1.6,12.6
			c1.2,4.3,3.9,7.9,7.8,10.1c2.5,1.5,5.4,2.2,8.3,2.2c5.9,0,11.5-3.2,14.4-8.4c2.2-3.9,2.8-8.3,1.6-12.6S185.9,376.8,182,374.6z"/>
		<path class="st0" d="M273.4,421.8c-2.5-1.5-5.4-2.2-8.3-2.2c-5.9,0-11.4,3.2-14.4,8.3c-2.2,3.8-2.8,8.3-1.7,12.6
			c1.1,4.3,3.9,7.9,7.7,10.1c2.5,1.5,5.4,2.2,8.3,2.2c5.9,0,11.4-3.2,14.4-8.3c2.2-3.8,2.8-8.3,1.7-12.6
			C280,427.6,277.1,424,273.4,421.8z"/>
		<path class="st0" d="M172.2,419.6c-2.9,0-5.8,0.8-8.3,2.2c-7.9,4.6-10.7,14.8-6.1,22.7c3,5.1,8.5,8.3,14.4,8.3
			c2.9,0,5.8-0.8,8.3-2.2c7.9-4.6,10.7-14.8,6.1-22.7C183.6,422.7,178.1,419.6,172.2,419.6z"/>
		<path class="st0" d="M265.1,373.1c-2.9,0-5.8,0.8-8.3,2.2c-3.8,2.2-6.6,5.8-7.7,10.1c-1.1,4.3-0.6,8.8,1.7,12.6
			c3,5.1,8.5,8.3,14.4,8.3c2.9,0,5.8-0.8,8.3-2.2c7.9-4.6,10.7-14.8,6.1-22.7C276.5,376.3,271,373.1,265.1,373.1z"/>
		<path class="st0" d="M381.1,396.4c-9.2,0-16.6,7.5-16.6,16.6c0,9.2,7.5,16.6,16.6,16.6s16.6-7.5,16.6-16.6
			C397.8,403.8,390.3,396.4,381.1,396.4z"/>
		<path class="st0" d="M381.1,442.8c-9.2,0-16.6,7.5-16.6,16.6c0,9.2,7.5,16.6,16.6,16.6s16.6-7.5,16.6-16.6
			C397.8,450.2,390.3,442.8,381.1,442.8z"/>
		<path class="st0" d="M381.1,489.2c-9.2,0-16.6,7.5-16.6,16.6c0,9.2,7.5,16.6,16.6,16.6s16.6-7.5,16.6-16.6
			C397.8,496.7,390.3,489.2,381.1,489.2z"/>
		<path class="st0" d="M343,421.8c-2.5-1.5-5.4-2.2-8.3-2.2c-5.9,0-11.4,3.2-14.4,8.3c-4.6,7.9-1.9,18.1,6.1,22.7
			c2.5,1.5,5.4,2.2,8.3,2.2c5.9,0,11.4-3.2,14.4-8.3c2.2-3.8,2.8-8.3,1.7-12.6C349.6,427.6,346.9,424,343,421.8z"/>
		<path class="st0" d="M435.9,468.2c-2.5-1.5-5.4-2.2-8.3-2.2c-5.9,0-11.4,3.2-14.4,8.3c-2.2,3.8-2.8,8.3-1.7,12.6
			c1.1,4.3,3.9,7.9,7.7,10.1c2.5,1.5,5.4,2.2,8.3,2.2c5.9,0,11.4-3.2,14.4-8.3C446.6,483,443.8,472.8,435.9,468.2z"/>
		<path class="st0" d="M334.6,466c-2.9,0-5.8,0.8-8.3,2.2c-7.9,4.6-10.7,14.8-6.1,22.7c3,5.1,8.5,8.3,14.4,8.3
			c2.9,0,5.8-0.8,8.3-2.2c7.9-4.6,10.7-14.8,6.1-22.7C346.1,469.2,340.6,466,334.6,466z"/>
		<path class="st0" d="M427.6,452.8c2.9,0,5.8-0.8,8.3-2.2c7.9-4.6,10.7-14.8,6.1-22.7c-3-5.1-8.5-8.3-14.4-8.3
			c-2.9,0-5.8,0.8-8.3,2.2c-3.8,2.2-6.6,5.8-7.7,10.1c-1.1,4.3-0.6,8.8,1.7,12.6C416.1,449.6,421.6,452.8,427.6,452.8z"/>
	</g>
</g>
</svg>
