<?xml version="1.0" encoding="utf-8"?>
<!-- Generator: Adobe Illustrator 23.0.2, SVG Export Plug-In . SVG Version: 6.00 Build 0)  -->
<svg version="1.1" id="Layer_1" xmlns="http://www.w3.org/2000/svg" xmlns:xlink="http://www.w3.org/1999/xlink" x="0px" y="0px"
	 viewBox="0 0 600 600" style="enable-background:new 0 0 600 600;" xml:space="preserve">
<style type="text/css">
	.st0{fill:#BCBCBC;}
	.st1{fill:#63CCFF;}
</style>
<title>18</title>
<g>
	<path class="st0" d="M502.5,213.9c-17.9-13.7-39.9-19.6-61.8-16.8c-9.8-51.8-47.4-94.5-98.3-110.3c-36.6-11.4-75.4-7.8-109.2,10
		c-31.5,16.5-55.2,43.5-67.5,76.6c-24.9-1.3-49.5,7.1-68.6,23.8c-21.3,18.5-33.5,45.2-33.5,73.2c0,47.7,35.8,88.9,83.2,95.7
		l12.3,1.1c1.1,0.1,290.9,0.2,291.7,0.2h0.1c47.1-0.1,85.4-38.4,85.4-85.5C536.3,255.5,523.6,230.1,502.5,213.9z"/>
	<g>
		<path class="st1" d="M370.7,402l-90.6,90.6c-6.2,6.2-6.2,16.2,0,22.4l0,0c6.2,6.2,16.2,6.2,22.4,0l90.6-90.6
			c6.2-6.2,6.2-16.2,0-22.4l0,0C386.9,395.9,376.9,395.9,370.7,402z"/>
		<path class="st1" d="M301,402l-90.6,90.6c-6.2,6.2-6.2,16.2,0,22.4l0,0c6.2,6.2,16.2,6.2,22.4,0l90.6-90.6
			c6.2-6.2,6.2-16.2,0-22.4l0,0C317.2,395.9,307.2,395.9,301,402z"/>
		<path class="st1" d="M231.4,402l-90.6,90.6c-6.2,6.2-6.2,16.2,0,22.4l0,0c6.2,6.2,16.2,6.2,22.4,0l90.6-90.6
			c6.2-6.2,6.2-16.2,0-22.4l0,0C247.6,395.9,237.6,395.9,231.4,402z"/>
	</g>
</g>
</svg>
