<?xml version="1.0" encoding="utf-8"?>
<!-- Generator: Adobe Illustrator 23.0.2, SVG Export Plug-In . SVG Version: 6.00 Build 0)  -->
<svg version="1.1" id="Layer_1" xmlns="http://www.w3.org/2000/svg" xmlns:xlink="http://www.w3.org/1999/xlink" x="0px" y="0px"
	 viewBox="0 0 600 600" style="enable-background:new 0 0 600 600;" xml:space="preserve">
<style type="text/css">
	.st0{fill:#EEEEEE;}
	.st1{fill:#BCBCBC;}
</style>
<title>19</title>
<g>
	<g>
		<path class="st0" d="M439.2,200.5c9.2,0,16.6-7.5,16.6-16.6s-7.5-16.6-16.6-16.6c-9.2,0-16.6,7.5-16.6,16.6S430,200.5,439.2,200.5
			z"/>
		<circle class="st0" cx="392.8" cy="183.9" r="16.6"/>
		<path class="st0" d="M485.6,200.5c9.2,0,16.6-7.5,16.6-16.6s-7.5-16.6-16.6-16.6c-9.2,0-16.6,7.5-16.6,16.6
			S476.5,200.5,485.6,200.5z"/>
		<path class="st0" d="M376.7,344.5c1.1,4.3,3.9,7.9,7.7,10.1c2.5,1.5,5.4,2.2,8.3,2.2c5.9,0,11.4-3.2,14.4-8.3
			c2.2-3.8,2.8-8.3,1.7-12.6c-1.1-4.3-3.9-7.9-7.7-10.1c-2.5-1.5-5.4-2.2-8.3-2.2c-5.9,0-11.4,3.2-14.4,8.3
			C376.2,335.7,375.6,340.2,376.7,344.5z"/>
		<path class="st0" d="M392.8,276.4c2.9,0,5.8-0.8,8.3-2.2c7.9-4.6,10.7-14.8,6.1-22.7c-3-5.1-8.5-8.3-14.4-8.3
			c-2.9,0-5.8,0.8-8.3,2.2c-7.9,4.6-10.7,14.8-6.1,22.7C381.3,273.2,386.9,276.4,392.8,276.4z"/>
		<path class="st0" d="M422.6,341.1c0,0.2,0,0.4,0,0.6c0,0.4,0.1,0.7,0.1,1.1c0,0.2,0.1,0.3,0.1,0.5c0.1,0.4,0.2,0.8,0.2,1.1
			c0,0.1,0.1,0.3,0.1,0.4c0.1,0.4,0.2,0.8,0.4,1.1c0.1,0.1,0.1,0.3,0.2,0.4c0.1,0.3,0.3,0.7,0.4,1c0.1,0.2,0.2,0.4,0.3,0.6
			c0.1,0.2,0.2,0.4,0.3,0.6c0.1,0.1,0.1,0.2,0.2,0.3c0,0.1,0.1,0.1,0.1,0.2c0.2,0.4,0.5,0.7,0.7,1.1c0,0.1,0.1,0.1,0.1,0.2
			c0.3,0.4,0.6,0.7,0.9,1c0.1,0.1,0.2,0.2,0.3,0.4c0.2,0.2,0.4,0.5,0.7,0.7c0.1,0.1,0.3,0.2,0.4,0.4c0.3,0.3,0.6,0.5,1,0.8
			c0.2,0.1,0.3,0.2,0.5,0.4c0.3,0.2,0.5,0.4,0.8,0.5c0.1,0.1,0.2,0.1,0.3,0.2c2.5,1.5,5.4,2.2,8.3,2.2l0,0l0,0
			c2.9,0,5.8-0.8,8.3-2.2c0.1-0.1,0.2-0.2,0.4-0.2c0.2-0.2,0.5-0.3,0.7-0.5c0.2-0.1,0.4-0.3,0.6-0.4s0.4-0.3,0.6-0.5
			c0.3-0.2,0.6-0.5,0.9-0.8c0.1-0.1,0.3-0.3,0.4-0.4c0.2-0.2,0.4-0.4,0.5-0.6s0.3-0.3,0.4-0.5c0.3-0.3,0.5-0.6,0.7-0.9
			c0.1-0.2,0.3-0.4,0.4-0.6s0.2-0.4,0.4-0.6c0-0.1,0.1-0.1,0.1-0.2c0.1-0.1,0.1-0.2,0.2-0.3c0.2-0.3,0.3-0.6,0.5-1
			c0.1-0.2,0.2-0.4,0.3-0.7c0.1-0.3,0.2-0.5,0.3-0.8c0.1-0.3,0.2-0.6,0.3-0.8c0-0.1,0.1-0.3,0.1-0.4s0-0.2,0.1-0.3
			c0.1-0.3,0.1-0.6,0.2-0.9s0.1-0.5,0.1-0.8c0-0.2,0.1-0.5,0.1-0.7c0-0.3,0.1-0.7,0.1-1c0-0.1,0-0.3,0-0.4c0-0.4,0-0.8,0-1.3
			c0-0.1,0-0.1,0-0.2c0-0.5-0.1-1-0.2-1.4v-0.1c-0.1-0.5-0.2-1-0.3-1.4v-0.1c-0.1-0.5-0.3-0.9-0.4-1.3c0-0.1-0.1-0.2-0.1-0.3
			c-0.1-0.4-0.3-0.7-0.5-1.1c-0.1-0.2-0.2-0.3-0.3-0.5c-0.1-0.2-0.2-0.4-0.3-0.6c-0.1-0.1-0.1-0.2-0.2-0.3c0-0.1-0.1-0.2-0.2-0.2
			c-0.2-0.4-0.5-0.7-0.7-1c-0.1-0.1-0.1-0.2-0.2-0.2c-0.3-0.4-0.6-0.7-0.9-1c-0.1-0.1-0.3-0.3-0.4-0.4c-0.2-0.2-0.4-0.4-0.6-0.6
			s-0.3-0.3-0.5-0.5c-0.3-0.2-0.5-0.5-0.8-0.7c-0.2-0.1-0.4-0.3-0.5-0.4c-0.2-0.2-0.5-0.3-0.7-0.5c-0.1-0.1-0.2-0.2-0.4-0.2
			c-2.5-1.5-5.4-2.2-8.3-2.2c-0.2,0-0.4,0-0.6,0c-2.7,0.1-5.3,0.9-7.7,2.2c-0.1,0.1-0.2,0.1-0.3,0.2c-0.3,0.2-0.5,0.3-0.8,0.5
			c-0.2,0.1-0.3,0.2-0.5,0.4c-0.3,0.2-0.6,0.5-0.9,0.7c-0.2,0.1-0.3,0.3-0.5,0.4c-0.2,0.2-0.4,0.4-0.7,0.6c-0.1,0.1-0.2,0.3-0.4,0.4
			c-0.3,0.3-0.6,0.7-0.9,1c-0.1,0.1-0.1,0.1-0.2,0.2c-0.2,0.3-0.5,0.7-0.7,1c0,0.1-0.1,0.2-0.1,0.2c-0.1,0.1-0.1,0.2-0.2,0.3
			c-0.1,0.2-0.2,0.4-0.3,0.6c-0.1,0.2-0.2,0.4-0.3,0.6c-0.2,0.3-0.3,0.6-0.4,1c-0.1,0.2-0.1,0.3-0.2,0.5c-0.1,0.4-0.2,0.7-0.3,1.1
			c0,0.1-0.1,0.3-0.1,0.4c-0.1,0.4-0.2,0.7-0.2,1.1c0,0.2-0.1,0.3-0.1,0.5c-0.1,0.3-0.1,0.7-0.1,1c0,0.2,0,0.4-0.1,0.7
			c0,0.3,0,0.5,0,0.8C422.6,340.5,422.6,340.8,422.6,341.1z"/>
		<path class="st0" d="M455.8,259c0-0.3,0-0.6-0.1-0.8c0-0.3-0.1-0.6-0.1-0.8c0-0.2-0.1-0.5-0.1-0.7c-0.1-0.3-0.1-0.6-0.2-0.9
			c0-0.1,0-0.2-0.1-0.2c0-0.2-0.1-0.3-0.2-0.5c-0.1-0.3-0.2-0.5-0.2-0.8c-0.1-0.3-0.2-0.7-0.4-1c-0.1-0.1-0.1-0.3-0.2-0.4
			c-0.2-0.4-0.4-0.8-0.6-1.2c0,0,0-0.1-0.1-0.1c0,0,0,0,0-0.1c-0.2-0.3-0.3-0.6-0.5-0.8l-0.1-0.1c-0.6-0.9-1.3-1.7-2-2.4l0,0
			c-0.5-0.5-1-0.9-1.5-1.3c0,0-0.1,0-0.1-0.1c-0.3-0.2-0.5-0.4-0.8-0.6c-0.1-0.1-0.2-0.1-0.2-0.2c-0.2-0.2-0.5-0.3-0.7-0.5
			c-2.5-1.5-5.4-2.2-8.3-2.2c-1.2,0-2.5,0.1-3.7,0.4c-1.6,0.4-3.2,1-4.7,1.8c-0.1,0.1-0.2,0.1-0.3,0.2c-0.3,0.2-0.6,0.4-0.9,0.6
			c-0.2,0.1-0.3,0.2-0.5,0.3c-0.3,0.3-0.7,0.5-1,0.8c-0.1,0.1-0.3,0.2-0.4,0.4c-0.2,0.2-0.5,0.4-0.7,0.7c-0.1,0.1-0.2,0.3-0.4,0.4
			c-0.3,0.3-0.6,0.7-0.9,1c-0.1,0.1-0.1,0.2-0.2,0.2c-0.2,0.3-0.5,0.7-0.7,1c-0.1,0.1-0.1,0.2-0.2,0.3s-0.1,0.2-0.2,0.3
			c-0.1,0.2-0.2,0.4-0.3,0.6c-0.1,0.2-0.2,0.4-0.3,0.6c-0.2,0.3-0.3,0.7-0.4,1c-0.1,0.1-0.1,0.3-0.2,0.4c-0.1,0.4-0.3,0.8-0.4,1.2
			c0,0.1-0.1,0.2-0.1,0.3c-0.1,0.4-0.2,0.9-0.3,1.3c0,0.1,0,0.2,0,0.3c-0.1,0.4-0.1,0.8-0.1,1.3c0,0.1,0,0.3,0,0.4
			c0,0.4,0,0.7,0,1.1c0,0.2,0,0.4,0,0.6c0,0.3,0,0.6,0.1,0.8c0,0.3,0.1,0.6,0.1,0.9c0,0.2,0.1,0.4,0.1,0.6c0.1,0.4,0.1,0.7,0.2,1.1
			c0,0.1,0,0.1,0,0.2s0.1,0.2,0.1,0.3c0.1,0.4,0.2,0.7,0.3,1.1c0.1,0.2,0.1,0.4,0.2,0.6c0.1,0.3,0.2,0.6,0.4,0.9
			c0.1,0.3,0.2,0.5,0.4,0.7c0.1,0.2,0.1,0.3,0.2,0.5c0.1,0.1,0.1,0.2,0.2,0.3c0.1,0.1,0.2,0.2,0.2,0.4c0.2,0.3,0.4,0.6,0.7,1
			c0.1,0.1,0.2,0.2,0.2,0.3c0.2,0.3,0.5,0.6,0.8,0.9c0.1,0.1,0.2,0.3,0.4,0.4c0.2,0.3,0.5,0.5,0.8,0.7c0.1,0.1,0.2,0.2,0.3,0.3
			c0.3,0.3,0.7,0.5,1,0.8c0.1,0.1,0.2,0.2,0.4,0.3c0.4,0.3,0.8,0.5,1.2,0.7c0,0,0,0,0.1,0c0.6,0.3,1.1,0.6,1.7,0.9
			c0.1,0,0.2,0.1,0.2,0.1c0.1,0.1,0.3,0.1,0.4,0.2c0.2,0.1,0.4,0.2,0.6,0.2h0.1c1.7,0.6,3.4,0.8,5.2,0.8c2.9,0,5.8-0.8,8.3-2.2
			c0.2-0.1,0.3-0.2,0.4-0.3c0.2-0.1,0.4-0.3,0.6-0.4s0.4-0.3,0.6-0.4s0.4-0.3,0.5-0.4c0.3-0.3,0.6-0.5,0.9-0.8
			c0.1-0.1,0.3-0.3,0.4-0.4c0.2-0.2,0.4-0.4,0.5-0.6s0.3-0.3,0.4-0.5c0.2-0.3,0.5-0.6,0.7-0.9c0.2-0.2,0.3-0.4,0.4-0.6
			s0.2-0.4,0.3-0.5c0-0.1,0.1-0.1,0.1-0.2c0.1-0.1,0.1-0.2,0.2-0.4c0.2-0.3,0.3-0.6,0.4-0.8c0.1-0.3,0.2-0.6,0.4-0.8
			c0.1-0.2,0.2-0.4,0.2-0.6c0.1-0.4,0.3-0.8,0.4-1.2c0-0.1,0-0.1,0.1-0.2v-0.1c0.1-0.4,0.2-0.9,0.3-1.3c0-0.1,0-0.2,0-0.3
			c0.1-0.4,0.1-0.8,0.1-1.3c0-0.1,0-0.3,0-0.4c0-0.4,0-0.7,0-1.1C455.8,259.4,455.8,259.2,455.8,259z"/>
		<path class="st0" d="M485.6,323.6c-2.9,0-5.8,0.8-8.3,2.2c-3.8,2.2-6.6,5.8-7.7,10.1c-1.1,4.3-0.6,8.8,1.7,12.6
			c3,5.1,8.5,8.3,14.4,8.3c2.9,0,5.8-0.8,8.3-2.2c7.9-4.6,10.7-14.8,6.1-22.7C497.1,326.8,491.5,323.6,485.6,323.6z"/>
		<path class="st0" d="M439.2,399.5c-9.2,0-16.6,7.5-16.6,16.6s7.5,16.6,16.6,16.6c9.2,0,16.6-7.5,16.6-16.6
			S448.4,399.5,439.2,399.5z"/>
		<circle class="st0" cx="392.8" cy="416.1" r="16.6"/>
		<path class="st0" d="M346.3,167.3c-9.2,0-16.6,7.5-16.6,16.6s7.5,16.6,16.6,16.6c9.2,0,16.6-7.5,16.6-16.6
			S355.5,167.3,346.3,167.3z"/>
		<path class="st0" d="M299.9,167.3c-9.2,0-16.6,7.5-16.6,16.6s7.5,16.6,16.6,16.6c9.2,0,16.6-7.5,16.6-16.6
			S309.1,167.3,299.9,167.3z"/>
		<path class="st0" d="M362.4,255.5c-1.1-4.3-3.9-7.9-7.7-10.1c-2.5-1.5-5.4-2.2-8.3-2.2c-5.9,0-11.4,3.2-14.4,8.3
			c-2.2,3.8-2.8,8.3-1.7,12.6s3.9,7.9,7.7,10.1c2.5,1.5,5.4,2.2,8.3,2.2c5.9,0,11.4-3.2,14.4-8.3
			C362.9,264.3,363.5,259.8,362.4,255.5z"/>
		<path class="st0" d="M291.6,354.6c2.5,1.5,5.4,2.2,8.3,2.2c5.9,0,11.4-3.2,14.4-8.3c2.2-3.8,2.8-8.3,1.7-12.6
			c-1.1-4.3-3.9-7.9-7.7-10.1c-2.5-1.5-5.4-2.2-8.3-2.2c-5.9,0-11.4,3.2-14.4,8.3C280.9,339.8,283.7,350,291.6,354.6z"/>
		<path class="st0" d="M299.9,276.4c2.9,0,5.8-0.8,8.3-2.2c7.9-4.6,10.7-14.8,6.1-22.7c-3-5.1-8.5-8.3-14.4-8.3
			c-2.9,0-5.8,0.8-8.3,2.2c-7.9,4.6-10.7,14.8-6.1,22.7C288.5,273.2,294,276.4,299.9,276.4z"/>
		<path class="st0" d="M346.3,323.6c-2.9,0-5.8,0.8-8.3,2.2c-3.8,2.2-6.6,5.8-7.7,10.1c-1.1,4.3-0.6,8.8,1.7,12.6
			c3,5.1,8.5,8.3,14.4,8.3c2.9,0,5.8-0.8,8.3-2.2c7.9-4.6,10.7-14.8,6.1-22.7C357.8,326.8,352.2,323.6,346.3,323.6z"/>
		<path class="st0" d="M346.3,399.5c-9.2,0-16.6,7.5-16.6,16.6s7.5,16.6,16.6,16.6c9.2,0,16.6-7.5,16.6-16.6
			S355.5,399.5,346.3,399.5z"/>
		<path class="st0" d="M299.9,399.5c-9.2,0-16.6,7.5-16.6,16.6s7.5,16.6,16.6,16.6c9.2,0,16.6-7.5,16.6-16.6
			S309.1,399.5,299.9,399.5z"/>
		<path class="st0" d="M253.5,200.5c9.2,0,16.6-7.5,16.6-16.6s-7.5-16.6-16.6-16.6c-9.2,0-16.6,7.5-16.6,16.6
			S244.3,200.5,253.5,200.5z"/>
		<path class="st0" d="M207,167.3c-9.2,0-16.6,7.5-16.6,16.6s7.5,16.6,16.6,16.6c9.2,0,16.6-7.5,16.6-16.6S216.2,167.3,207,167.3z"
			/>
		<path class="st0" d="M160.6,200.5c9.2,0,16.6-7.5,16.6-16.6s-7.5-16.6-16.6-16.6c-9.2,0-16.6,7.5-16.6,16.6
			S151.4,200.5,160.6,200.5z"/>
		<path class="st0" d="M253.5,243.2c-5.9,0-11.4,3.2-14.4,8.3c-4.6,7.9-1.9,18.1,6.1,22.7c2.5,1.5,5.4,2.2,8.3,2.2
			c5.9,0,11.4-3.2,14.4-8.3c4.6-7.9,1.9-18.1-6.1-22.7C259.3,243.9,256.4,243.2,253.5,243.2z"/>
		<path class="st0" d="M223.6,259.1c0-0.3,0-0.5-0.1-0.8c0-0.3-0.1-0.6-0.1-0.9c0-0.2-0.1-0.4-0.1-0.6c-0.1-0.4-0.1-0.7-0.2-1.1
			c0-0.1,0-0.1,0-0.2s-0.1-0.2-0.1-0.3c-0.1-0.4-0.2-0.7-0.3-1.1c-0.1-0.2-0.1-0.4-0.2-0.5c-0.1-0.3-0.3-0.6-0.4-0.9
			c-0.1-0.2-0.2-0.5-0.4-0.7c-0.1-0.2-0.2-0.3-0.2-0.5c-0.1-0.1-0.1-0.2-0.2-0.3c-0.1-0.1-0.1-0.2-0.2-0.3c-0.2-0.3-0.5-0.7-0.7-1
			c-0.1-0.1-0.1-0.2-0.2-0.2c-0.3-0.3-0.5-0.7-0.8-1c-0.1-0.1-0.2-0.2-0.3-0.4c-0.3-0.3-0.5-0.5-0.8-0.8c-0.1-0.1-0.1-0.1-0.2-0.2
			c-0.3-0.3-0.7-0.6-1.1-0.9c-0.1-0.1-0.2-0.2-0.3-0.2c-0.4-0.3-0.8-0.5-1.2-0.8l0,0l0,0c-0.3-0.2-0.6-0.4-1-0.5
			c-0.1,0-0.1-0.1-0.2-0.1c-0.3-0.1-0.5-0.3-0.8-0.4l0,0c-2-0.8-4.1-1.3-6.3-1.3c-2.9,0-5.8,0.8-8.3,2.2c-0.1,0.1-0.3,0.2-0.4,0.3
			c-0.2,0.1-0.5,0.3-0.7,0.4c-0.2,0.1-0.4,0.3-0.6,0.4c-0.3,0.2-0.6,0.4-0.8,0.7c-0.2,0.2-0.4,0.3-0.5,0.5c-0.2,0.2-0.4,0.4-0.7,0.6
			c-0.1,0.1-0.2,0.3-0.4,0.4c-0.3,0.3-0.6,0.7-0.9,1c0,0.1-0.1,0.1-0.1,0.2c-0.3,0.4-0.5,0.7-0.8,1.1c0,0.1-0.1,0.1-0.1,0.2
			c-0.1,0.1-0.1,0.2-0.2,0.3c-0.1,0.2-0.2,0.4-0.3,0.7c-0.1,0.2-0.2,0.3-0.3,0.5c-0.2,0.4-0.3,0.7-0.5,1.1c0,0.1-0.1,0.2-0.1,0.3
			c-0.1,0.4-0.3,0.8-0.4,1.2c0,0.1-0.1,0.2-0.1,0.3c-0.1,0.4-0.2,0.8-0.3,1.3c0,0.1,0,0.2-0.1,0.3c-0.1,0.4-0.1,0.8-0.1,1.2
			c0,0.1,0,0.3,0,0.4c0,0.4,0,0.7,0,1.1c0,0.2,0,0.4,0,0.6c0,0.3,0,0.6,0.1,0.9c0,0.3,0.1,0.5,0.1,0.8c0,0.2,0.1,0.5,0.1,0.7
			c0.1,0.3,0.1,0.6,0.2,0.9c0.1,0.2,0.1,0.5,0.2,0.7c0.1,0.3,0.2,0.6,0.3,0.8c0.1,0.3,0.2,0.5,0.3,0.8c0.1,0.2,0.2,0.5,0.3,0.7
			c0.1,0.3,0.3,0.6,0.5,0.9c0.1,0.1,0.1,0.3,0.2,0.4c0,0.1,0.1,0.1,0.1,0.2c0.1,0.2,0.2,0.3,0.3,0.5s0.3,0.5,0.5,0.7
			c0.2,0.3,0.4,0.5,0.6,0.8c0.2,0.2,0.3,0.4,0.5,0.6s0.4,0.4,0.6,0.6c0.1,0.1,0.2,0.2,0.3,0.3c0.4,0.4,0.8,0.8,1.3,1.1
			c0.1,0.1,0.1,0.1,0.2,0.2c0.2,0.2,0.5,0.4,0.8,0.5c0.1,0.1,0.2,0.1,0.3,0.2c0.2,0.1,0.4,0.3,0.7,0.4c2.5,1.5,5.4,2.2,8.3,2.2
			c1.3,0,2.7-0.2,3.9-0.5c0.1,0,0.3-0.1,0.4-0.1c0,0,0,0,0.1,0c1.4-0.4,2.7-0.9,3.9-1.6c0.1,0,0.2-0.1,0.2-0.2
			c0.3-0.2,0.6-0.4,0.9-0.6c0.2-0.1,0.3-0.2,0.5-0.3c0.3-0.3,0.7-0.5,1-0.8c0.1-0.1,0.3-0.2,0.4-0.4c0.2-0.2,0.5-0.4,0.7-0.7
			c0.1-0.1,0.2-0.3,0.4-0.4c0.3-0.3,0.6-0.7,0.9-1c0.1-0.1,0.1-0.2,0.2-0.3c0.2-0.3,0.5-0.6,0.7-1c0.1-0.1,0.1-0.2,0.2-0.3
			c0.1-0.1,0.1-0.2,0.2-0.3c0.1-0.2,0.2-0.4,0.3-0.6s0.2-0.4,0.3-0.6c0.2-0.3,0.3-0.6,0.4-1c0.1-0.2,0.1-0.3,0.2-0.5
			c0.1-0.4,0.3-0.8,0.4-1.2c0-0.1,0.1-0.2,0.1-0.3c0.1-0.4,0.2-0.8,0.3-1.3c0-0.1,0-0.2,0.1-0.3c0.1-0.4,0.1-0.8,0.1-1.2
			c0-0.1,0-0.3,0-0.4c0-0.3,0-0.7,0-1C223.6,259.5,223.6,259.3,223.6,259.1z"/>
		<path class="st0" d="M253.5,323.6c-2.9,0-5.8,0.8-8.3,2.2c-7.9,4.6-10.7,14.8-6.1,22.7c3,5.1,8.5,8.3,14.4,8.3
			c2.9,0,5.8-0.8,8.3-2.2c3.8-2.2,6.6-5.8,7.7-10.1c1.1-4.3,0.6-8.8-1.7-12.6C264.9,326.8,259.4,323.6,253.5,323.6z"/>
		<path class="st0" d="M152.3,354.6c2.5,1.5,5.4,2.2,8.3,2.2c5.9,0,11.4-3.2,14.4-8.3c2.2-3.8,2.8-8.3,1.7-12.6
			c-1.1-4.3-3.9-7.9-7.7-10.1c-2.5-1.5-5.4-2.2-8.3-2.2c-5.9,0-11.4,3.2-14.4,8.3c-2.2,3.8-2.8,8.3-1.7,12.6
			C145.7,348.8,148.5,352.4,152.3,354.6z"/>
		<path class="st0" d="M190.5,341.3c0,0.1,0,0.1,0,0.2c0,0.5,0.1,1,0.2,1.4v0.1c0.1,0.5,0.2,1,0.3,1.5v0.1c0.1,0.5,0.3,0.9,0.4,1.4
			c0,0.1,0.1,0.2,0.1,0.3c0.2,0.4,0.3,0.8,0.5,1.1c0.1,0.2,0.2,0.3,0.2,0.5c0.1,0.2,0.2,0.5,0.3,0.7c0.1,0.1,0.1,0.2,0.2,0.3
			c0,0.1,0.1,0.1,0.1,0.2c0.2,0.4,0.5,0.7,0.7,1.1c0,0.1,0.1,0.1,0.1,0.2c0.3,0.4,0.6,0.7,0.9,1c0.1,0.1,0.2,0.2,0.3,0.4
			c0.2,0.2,0.4,0.5,0.7,0.7c0.1,0.1,0.3,0.2,0.4,0.4c0.3,0.3,0.6,0.5,1,0.8c0.2,0.1,0.3,0.2,0.5,0.4c0.3,0.2,0.5,0.4,0.8,0.5
			c0.1,0.1,0.2,0.1,0.3,0.2c2.5,1.5,5.4,2.2,8.3,2.2l0,0l0,0c2.9,0,5.8-0.8,8.3-2.2c0.1-0.1,0.2-0.2,0.3-0.2
			c0.3-0.2,0.5-0.3,0.8-0.5c0.2-0.1,0.4-0.2,0.5-0.4c0.3-0.2,0.6-0.5,0.9-0.7c0.2-0.1,0.3-0.3,0.5-0.4c0.2-0.2,0.4-0.4,0.7-0.6
			c0.1-0.1,0.2-0.3,0.4-0.4c0.3-0.3,0.6-0.7,0.9-1c0-0.1,0.1-0.1,0.1-0.2c0.3-0.3,0.5-0.7,0.7-1.1c0-0.1,0.1-0.1,0.1-0.2
			c0.1-0.1,0.1-0.2,0.2-0.3c0.1-0.2,0.2-0.4,0.3-0.6s0.2-0.4,0.3-0.6c0.2-0.3,0.3-0.7,0.4-1c0.1-0.1,0.1-0.3,0.2-0.4
			c0.1-0.4,0.3-0.8,0.4-1.1c0-0.1,0.1-0.3,0.1-0.4c0.1-0.4,0.2-0.8,0.2-1.1c0-0.2,0.1-0.3,0.1-0.5c0.1-0.4,0.1-0.7,0.1-1.1
			c0-0.2,0-0.4,0-0.6c0-0.3,0-0.6,0-0.9s0-0.5,0-0.8c0-0.2,0-0.5-0.1-0.7c0-0.3-0.1-0.7-0.1-1c0-0.2-0.1-0.4-0.1-0.5
			c-0.1-0.4-0.1-0.7-0.2-1.1c0-0.2-0.1-0.3-0.1-0.5c-0.1-0.4-0.2-0.7-0.3-1.1c-0.1-0.2-0.1-0.3-0.2-0.5c-0.1-0.3-0.3-0.6-0.4-0.9
			c-0.1-0.2-0.2-0.4-0.3-0.6s-0.2-0.4-0.3-0.6c-0.1-0.1-0.1-0.2-0.2-0.3c-0.1-0.1-0.1-0.2-0.2-0.3c-0.2-0.3-0.4-0.7-0.7-1
			c-0.1-0.1-0.1-0.2-0.2-0.3c-0.3-0.3-0.5-0.7-0.8-1c-0.1-0.1-0.3-0.3-0.4-0.4c-0.2-0.2-0.4-0.4-0.6-0.6c-0.2-0.2-0.4-0.4-0.6-0.5
			c-0.3-0.2-0.5-0.4-0.8-0.6c-0.2-0.1-0.4-0.3-0.6-0.4c-0.2-0.2-0.5-0.3-0.7-0.5c-0.1-0.1-0.3-0.2-0.4-0.3c-2.5-1.5-5.4-2.2-8.3-2.2
			c-0.2,0-0.4,0-0.6,0c-2.7,0.1-5.3,0.9-7.7,2.2c-0.1,0.1-0.2,0.2-0.4,0.2c-0.2,0.1-0.5,0.3-0.7,0.5c-0.2,0.1-0.4,0.3-0.6,0.4
			c-0.2,0.1-0.4,0.3-0.6,0.4c-0.3,0.3-0.6,0.5-0.9,0.8c-0.1,0.1-0.3,0.3-0.4,0.4c-0.2,0.2-0.4,0.4-0.6,0.6c-0.1,0.1-0.2,0.3-0.4,0.4
			c-0.3,0.3-0.5,0.7-0.8,1c-0.1,0.2-0.3,0.4-0.4,0.5c-0.1,0.2-0.3,0.4-0.4,0.6c0,0.1-0.1,0.1-0.1,0.2c-0.1,0.1-0.1,0.2-0.1,0.3
			c-0.2,0.3-0.4,0.7-0.5,1c-0.1,0.2-0.2,0.4-0.3,0.6c-0.1,0.3-0.2,0.6-0.3,0.8c-0.1,0.3-0.2,0.5-0.3,0.8c0,0.1-0.1,0.3-0.1,0.4
			s0,0.2-0.1,0.3c-0.1,0.3-0.1,0.6-0.2,0.8c-0.1,0.3-0.1,0.6-0.1,0.8c0,0.2-0.1,0.4-0.1,0.7c0,0.4-0.1,0.7-0.1,1.1
			c0,0.1,0,0.3,0,0.4C190.4,340.4,190.4,340.9,190.5,341.3z"/>
		<path class="st0" d="M177.2,258.5c0-0.5-0.1-1-0.2-1.4V257c-0.1-0.5-0.2-1-0.3-1.5v-0.1c-0.1-0.5-0.3-0.9-0.4-1.4
			c0-0.1-0.1-0.2-0.1-0.3c-0.1-0.4-0.3-0.8-0.5-1.1c-0.1-0.2-0.2-0.3-0.3-0.5c-0.1-0.2-0.2-0.4-0.3-0.7c-0.1-0.1-0.1-0.2-0.2-0.3
			c0-0.1-0.1-0.1-0.1-0.2c-0.2-0.4-0.5-0.7-0.7-1.1c0-0.1-0.1-0.1-0.1-0.2c-0.3-0.4-0.6-0.7-0.9-1c-0.1-0.1-0.2-0.3-0.4-0.4
			c-0.2-0.2-0.4-0.4-0.7-0.6c-0.1-0.1-0.3-0.3-0.4-0.4c-0.3-0.3-0.6-0.5-0.9-0.7c-0.2-0.1-0.3-0.3-0.5-0.4c-0.3-0.2-0.5-0.3-0.8-0.5
			c-0.1-0.1-0.2-0.2-0.3-0.2c-2.5-1.5-5.4-2.2-8.3-2.2l0,0l0,0c-2.9,0-5.8,0.8-8.3,2.2c-0.1,0.1-0.2,0.1-0.3,0.2
			c-0.3,0.2-0.5,0.3-0.8,0.5c-0.2,0.1-0.3,0.2-0.5,0.4c-0.3,0.2-0.6,0.5-0.9,0.7c-0.1,0.1-0.3,0.3-0.4,0.4c-0.2,0.2-0.5,0.4-0.7,0.7
			c-0.1,0.1-0.2,0.2-0.4,0.4c-0.3,0.3-0.6,0.7-0.9,1c0,0.1-0.1,0.1-0.1,0.2c-0.3,0.3-0.5,0.7-0.7,1.1c0,0.1-0.1,0.1-0.1,0.2
			c-0.1,0.1-0.1,0.2-0.2,0.3c-0.1,0.2-0.2,0.4-0.3,0.6s-0.2,0.4-0.3,0.6c-0.2,0.3-0.3,0.7-0.4,1c-0.1,0.2-0.1,0.3-0.2,0.5
			c-0.1,0.4-0.3,0.7-0.4,1.1c0,0.1-0.1,0.3-0.1,0.4c-0.1,0.4-0.2,0.8-0.2,1.1c0,0.2-0.1,0.3-0.1,0.5c-0.1,0.3-0.1,0.7-0.1,1
			c0,0.2,0,0.4,0,0.6c0,0.3,0,0.6,0,0.9s0,0.6,0,0.8c0,0.2,0,0.4,0,0.7c0,0.3,0.1,0.7,0.1,1c0,0.2,0.1,0.3,0.1,0.5
			c0.1,0.4,0.1,0.7,0.2,1.1c0,0.1,0.1,0.3,0.1,0.4c0.1,0.4,0.2,0.7,0.3,1.1c0.1,0.2,0.1,0.3,0.2,0.5c0.1,0.3,0.3,0.6,0.4,1
			c0.1,0.2,0.2,0.4,0.3,0.6s0.2,0.4,0.3,0.6c0.1,0.1,0.1,0.2,0.2,0.3c0.1,0.1,0.1,0.2,0.2,0.3c0.2,0.3,0.4,0.7,0.7,1
			c0.1,0.1,0.1,0.2,0.2,0.2c0.3,0.4,0.6,0.7,0.9,1c0.1,0.1,0.3,0.3,0.4,0.4c0.2,0.2,0.4,0.4,0.6,0.6c0.2,0.2,0.3,0.3,0.5,0.5
			c0.3,0.2,0.6,0.5,0.8,0.7c0.2,0.1,0.4,0.3,0.5,0.4c0.2,0.2,0.5,0.3,0.8,0.5c0.1,0.1,0.2,0.2,0.4,0.2c2.5,1.5,5.4,2.2,8.3,2.2l0,0
			l0,0c2.9,0,5.8-0.8,8.3-2.2c0.1-0.1,0.3-0.2,0.4-0.3c0.2-0.1,0.4-0.3,0.7-0.4c0.2-0.1,0.4-0.3,0.6-0.4c0.2-0.1,0.3-0.3,0.5-0.4
			c0.3-0.3,0.6-0.5,1-0.8c0.1-0.1,0.3-0.2,0.4-0.4c0.2-0.2,0.4-0.4,0.6-0.6c0.1-0.1,0.2-0.3,0.3-0.4c0.3-0.3,0.6-0.7,0.8-1
			c0.1-0.2,0.2-0.3,0.4-0.5c0.1-0.2,0.3-0.4,0.4-0.6c0-0.1,0.1-0.1,0.1-0.2c0.1-0.1,0.1-0.2,0.1-0.3c0.2-0.3,0.4-0.7,0.5-1
			c0.1-0.2,0.2-0.4,0.3-0.6c0.1-0.3,0.2-0.6,0.3-0.9s0.2-0.5,0.3-0.8c0-0.2,0.1-0.3,0.1-0.5c0-0.1,0-0.2,0.1-0.3
			c0.1-0.3,0.1-0.5,0.2-0.8c0.1-0.3,0.1-0.6,0.1-0.9c0-0.2,0.1-0.4,0.1-0.6c0-0.4,0.1-0.7,0.1-1.1c0-0.1,0-0.3,0-0.4
			c0-0.4,0-0.9,0-1.3C177.2,258.6,177.2,258.6,177.2,258.5z"/>
		<path class="st0" d="M253.5,399.5c-9.2,0-16.6,7.5-16.6,16.6s7.5,16.6,16.6,16.6c9.2,0,16.6-7.5,16.6-16.6
			S262.6,399.5,253.5,399.5z"/>
		<path class="st0" d="M207,399.5c-9.2,0-16.6,7.5-16.6,16.6s7.5,16.6,16.6,16.6c9.2,0,16.6-7.5,16.6-16.6S216.2,399.5,207,399.5z"
			/>
		<path class="st0" d="M160.6,399.5c-9.2,0-16.6,7.5-16.6,16.6s7.5,16.6,16.6,16.6c9.2,0,16.6-7.5,16.6-16.6
			S169.8,399.5,160.6,399.5z"/>
		<circle class="st0" cx="114.2" cy="416.1" r="16.6"/>
	</g>
	<g>
		<path class="st1" d="M407.7,158.1c2.5,1.5,5.4,2.2,8.3,2.2c5.9,0,11.4-3.2,14.4-8.3c4.6-7.9,1.9-18.1-6.1-22.7
			c-2.5-1.5-5.4-2.2-8.3-2.2c-5.9,0-11.4,3.2-14.4,8.3C397,143.3,399.7,153.5,407.7,158.1z"/>
		<path class="st1" d="M377.9,209.7c-2.5-1.5-5.4-2.2-8.3-2.2c-5.9,0-11.4,3.2-14.4,8.3c-4.6,7.9-1.9,18.1,6.1,22.7
			c2.5,1.5,5.4,2.2,8.3,2.2c5.9,0,11.4-3.2,14.4-8.3C388.5,224.5,385.8,214.3,377.9,209.7z"/>
		<path class="st1" d="M369.6,160.3c2.9,0,5.8-0.8,8.3-2.2c7.9-4.6,10.7-14.8,6.1-22.7c-3-5.1-8.5-8.3-14.4-8.3
			c-2.9,0-5.8,0.8-8.3,2.2c-7.9,4.6-10.7,14.8-6.1,22.7C358.1,157.1,363.6,160.3,369.6,160.3z"/>
		<path class="st1" d="M416,207.5c-2.9,0-5.8,0.8-8.3,2.2c-7.9,4.6-10.7,14.8-6.1,22.7c3,5.1,8.5,8.3,14.4,8.3
			c2.9,0,5.8-0.8,8.3-2.2c7.9-4.6,10.7-14.8,6.1-22.7C427.4,210.7,421.9,207.5,416,207.5z"/>
		<path class="st1" d="M454.1,158.1c2.5,1.5,5.4,2.2,8.3,2.2c5.9,0,11.4-3.2,14.4-8.3c4.6-7.9,1.9-18.1-6.1-22.7
			c-2.5-1.5-5.4-2.2-8.3-2.2c-5.9,0-11.4,3.2-14.4,8.3C443.5,143.3,446.2,153.5,454.1,158.1z"/>
		<path class="st1" d="M462.4,207.5c-2.9,0-5.8,0.8-8.3,2.2c-7.9,4.6-10.7,14.8-6.1,22.7c3,5.1,8.5,8.3,14.4,8.3
			c2.9,0,5.8-0.8,8.3-2.2c7.9-4.6,10.7-14.8,6.1-22.7C473.8,210.7,468.3,207.5,462.4,207.5z"/>
		<path class="st1" d="M462.4,316.6c9.2,0,16.6-7.5,16.6-16.6c0-9.2-7.5-16.6-16.6-16.6c-9.2,0-16.6,7.5-16.6,16.6
			C445.8,309.2,453.3,316.6,462.4,316.6z"/>
		<path class="st1" d="M416,283.4c-9.2,0-16.6,7.5-16.6,16.6c0,9.2,7.5,16.6,16.6,16.6s16.6-7.5,16.6-16.6
			C432.6,290.8,425.1,283.4,416,283.4z"/>
		<path class="st1" d="M471.2,251.5c-4.6,7.9-1.9,18.1,6.1,22.7c2.5,1.5,5.4,2.2,8.3,2.2c5.9,0,11.4-3.2,14.4-8.3
			c4.6-7.9,1.9-18.1-6.1-22.7c-2.5-1.5-5.4-2.2-8.3-2.2C479.7,243.2,474.2,246.4,471.2,251.5z"/>
		<path class="st1" d="M407.7,390.3c2.5,1.5,5.4,2.2,8.3,2.2c5.9,0,11.4-3.2,14.4-8.3c4.6-7.9,1.9-18.1-6.1-22.7
			c-2.5-1.5-5.4-2.2-8.3-2.2c-5.9,0-11.4,3.2-14.4,8.3c-2.2,3.8-2.8,8.3-1.7,12.6C401.1,384.5,403.8,388,407.7,390.3z"/>
		<path class="st1" d="M377.9,441.9c-2.5-1.5-5.4-2.2-8.3-2.2c-5.9,0-11.4,3.2-14.4,8.3c-2.2,3.8-2.8,8.3-1.7,12.6
			c1.1,4.3,3.9,7.9,7.7,10.1c2.5,1.5,5.4,2.2,8.3,2.2c5.9,0,11.4-3.2,14.4-8.3c2.2-3.8,2.8-8.3,1.7-12.6
			C384.4,447.7,381.7,444.1,377.9,441.9z"/>
		<path class="st1" d="M369.6,392.5c2.9,0,5.8-0.8,8.3-2.2c7.9-4.6,10.7-14.8,6.1-22.7c-3-5.1-8.5-8.3-14.4-8.3
			c-2.9,0-5.8,0.8-8.3,2.2c-3.8,2.2-6.6,5.8-7.7,10.1c-1.1,4.3-0.6,8.8,1.7,12.6C358.1,389.3,363.6,392.5,369.6,392.5z"/>
		<path class="st1" d="M416,439.7c-2.9,0-5.8,0.8-8.3,2.2c-3.8,2.2-6.6,5.8-7.7,10.1c-1.1,4.3-0.6,8.8,1.7,12.6
			c3,5.1,8.5,8.3,14.4,8.3c2.9,0,5.8-0.8,8.3-2.2c7.9-4.6,10.7-14.8,6.1-22.7C427.4,442.9,421.9,439.7,416,439.7z"/>
		<path class="st1" d="M485.6,399.5c-9.2,0-16.6,7.5-16.6,16.6s7.5,16.6,16.6,16.6c9.2,0,16.6-7.5,16.6-16.6
			S494.8,399.5,485.6,399.5z"/>
		<path class="st1" d="M454.1,390.3c2.5,1.5,5.4,2.2,8.3,2.2c5.9,0,11.4-3.2,14.4-8.3c4.6-7.9,1.9-18.1-6.1-22.7
			c-2.5-1.5-5.4-2.2-8.3-2.2c-5.9,0-11.4,3.2-14.4,8.3C443.4,375.5,446.2,385.7,454.1,390.3z"/>
		<path class="st1" d="M462.4,439.7c-2.9,0-5.8,0.8-8.3,2.2c-3.8,2.2-6.6,5.8-7.7,10.1c-1.1,4.3-0.6,8.8,1.7,12.6
			c3,5.1,8.5,8.3,14.4,8.3c2.9,0,5.8-0.8,8.3-2.2c7.9-4.6,10.7-14.8,6.1-22.7C473.9,442.9,468.3,439.7,462.4,439.7z"/>
		<path class="st1" d="M314.8,158.1c2.5,1.5,5.4,2.2,8.3,2.2c5.9,0,11.4-3.2,14.4-8.3c2.2-3.8,2.8-8.3,1.7-12.6
			c-1.1-4.3-3.9-7.9-7.7-10.1c-2.5-1.5-5.4-2.2-8.3-2.2c-5.9,0-11.4,3.2-14.4,8.3C304.2,143.3,306.9,153.5,314.8,158.1z"/>
		<path class="st1" d="M285,209.8c-2.5-1.5-5.4-2.2-8.3-2.2c-5.9,0-11.4,3.2-14.4,8.3c-4.6,7.9-1.9,18.1,6.1,22.7
			c2.5,1.5,5.4,2.2,8.3,2.2c5.9,0,11.4-3.2,14.4-8.3C295.6,224.5,292.9,214.3,285,209.8z"/>
		<path class="st1" d="M276.7,160.3c2.9,0,5.8-0.8,8.3-2.2c7.9-4.6,10.7-14.8,6.1-22.7c-3-5.1-8.5-8.3-14.4-8.3
			c-2.9,0-5.8,0.8-8.3,2.2c-7.9,4.6-10.7,14.8-6.1,22.7C265.3,157.1,270.8,160.3,276.7,160.3z"/>
		<path class="st1" d="M323.1,207.5c-2.9,0-5.8,0.8-8.3,2.2c-3.8,2.2-6.6,5.8-7.7,10.1c-1.1,4.3-0.6,8.8,1.7,12.6
			c3,5.1,8.5,8.3,14.4,8.3c2.9,0,5.8-0.8,8.3-2.2c3.8-2.2,6.6-5.8,7.7-10.1c1.1-4.3,0.6-8.8-1.7-12.6
			C334.5,210.7,329,207.5,323.1,207.5z"/>
		<path class="st1" d="M369.6,316.6c9.2,0,16.6-7.5,16.6-16.6c0-9.2-7.5-16.6-16.6-16.6c-9.2,0-16.6,7.5-16.6,16.6
			C352.9,309.2,360.4,316.6,369.6,316.6z"/>
		<path class="st1" d="M323.1,283.4c-9.2,0-16.6,7.5-16.6,16.6c0,9.2,7.5,16.6,16.6,16.6c9.2,0,16.6-7.5,16.6-16.6
			C339.7,290.8,332.3,283.4,323.1,283.4z"/>
		<path class="st1" d="M331.4,361.5c-2.5-1.5-5.4-2.2-8.3-2.2c-5.9,0-11.4,3.2-14.4,8.3c-4.6,7.9-1.9,18.1,6.1,22.7
			c2.5,1.5,5.4,2.2,8.3,2.2c5.9,0,11.4-3.2,14.4-8.3c2.2-3.8,2.8-8.3,1.7-12.6C338,367.3,335.3,363.7,331.4,361.5z"/>
		<path class="st1" d="M285,441.9c-2.5-1.5-5.4-2.2-8.3-2.2c-5.9,0-11.4,3.2-14.4,8.3c-4.6,7.9-1.9,18.1,6.1,22.7
			c2.5,1.5,5.4,2.2,8.3,2.2c5.9,0,11.4-3.2,14.4-8.3c2.2-3.8,2.8-8.3,1.7-12.6C291.6,447.7,288.8,444.1,285,441.9z"/>
		<path class="st1" d="M276.7,392.5c2.9,0,5.8-0.8,8.3-2.2c3.8-2.2,6.6-5.8,7.7-10.1c1.1-4.3,0.6-8.8-1.7-12.6
			c-3-5.1-8.5-8.3-14.4-8.3c-2.9,0-5.8,0.8-8.3,2.2c-3.8,2.2-6.6,5.8-7.7,10.1c-1.1,4.3-0.6,8.8,1.7,12.6
			C265.3,389.3,270.8,392.5,276.7,392.5z"/>
		<path class="st1" d="M323.1,439.7c-2.9,0-5.8,0.8-8.3,2.2c-3.8,2.2-6.6,5.8-7.7,10.1c-1.1,4.3-0.6,8.8,1.7,12.6
			c3,5.1,8.5,8.3,14.4,8.3c2.9,0,5.8-0.8,8.3-2.2c7.9-4.6,10.7-14.8,6.1-22.7C334.5,442.9,329,439.7,323.1,439.7z"/>
		<path class="st1" d="M221.9,158.1c2.5,1.5,5.4,2.2,8.3,2.2c5.9,0,11.4-3.2,14.4-8.3c4.6-7.9,1.9-18.1-6.1-22.7
			c-2.5-1.5-5.4-2.2-8.3-2.2c-5.9,0-11.4,3.2-14.4,8.3C211.3,143.3,214,153.5,221.9,158.1z"/>
		<path class="st1" d="M193,209c-2.5-1.5-5.4-2.2-8.3-2.2c-5.9,0-11.5,3.2-14.4,8.4c-4.6,8-1.8,18.2,6.1,22.7
			c2.5,1.4,5.4,2.2,8.3,2.2c5.9,0,11.5-3.2,14.4-8.4C203.7,223.7,201,213.5,193,209z"/>
		<path class="st1" d="M183.8,160.3c2.9,0,5.8-0.8,8.3-2.2c7.9-4.6,10.7-14.8,6.1-22.7c-3-5.1-8.5-8.3-14.4-8.3
			c-2.9,0-5.8,0.8-8.3,2.2c-7.9,4.6-10.7,14.8-6.1,22.7C172.4,157.1,177.9,160.3,183.8,160.3z"/>
		<path class="st1" d="M230.2,207.5c-2.9,0-5.8,0.8-8.3,2.2c-7.9,4.6-10.7,14.8-6.1,22.7c3,5.1,8.5,8.3,14.4,8.3
			c2.9,0,5.8-0.8,8.3-2.2c7.9-4.6,10.7-14.8,6.1-22.7C241.7,210.7,236.2,207.5,230.2,207.5z"/>
		<circle class="st1" cx="114.2" cy="183.9" r="16.6"/>
		<path class="st1" d="M145.7,209.7c-2.5-1.5-5.4-2.2-8.3-2.2c-5.9,0-11.4,3.2-14.4,8.3c-4.6,7.9-1.9,18.1,6.1,22.7
			c2.5,1.5,5.4,2.2,8.3,2.2c5.9,0,11.4-3.2,14.4-8.3C156.3,224.5,153.6,214.3,145.7,209.7z"/>
		<path class="st1" d="M137.4,160.3c2.9,0,5.8-0.8,8.3-2.2c3.8-2.2,6.6-5.8,7.7-10.1c1.1-4.3,0.6-8.8-1.7-12.6
			c-3-5.1-8.5-8.3-14.4-8.3c-2.9,0-5.8,0.8-8.3,2.2c-7.9,4.6-10.7,14.8-6.1,22.7C126,157.1,131.5,160.3,137.4,160.3z"/>
		<path class="st1" d="M276.7,316.6c9.2,0,16.6-7.5,16.6-16.6c0-9.2-7.5-16.6-16.6-16.6c-9.2,0-16.6,7.5-16.6,16.6
			C260.1,309.2,267.5,316.6,276.7,316.6z"/>
		<path class="st1" d="M230.3,283.4c-9.2,0-16.6,7.5-16.6,16.6c0,9.2,7.5,16.6,16.6,16.6s16.6-7.4,16.6-16.6
			S239.4,283.4,230.3,283.4z"/>
		<path class="st1" d="M183.8,316.6c9.2,0,16.6-7.5,16.6-16.6c0-9.2-7.5-16.6-16.6-16.6s-16.6,7.5-16.6,16.6
			C167.2,309.2,174.7,316.6,183.8,316.6z"/>
		<path class="st1" d="M137.4,283.4c-9.2,0-16.6,7.5-16.6,16.6c0,9.2,7.5,16.6,16.6,16.6S154,309.1,154,300
			C154,290.8,146.5,283.4,137.4,283.4z"/>
		<path class="st1" d="M130,348c4.6-8,1.8-18.2-6.1-22.7c-2.5-1.5-5.4-2.2-8.3-2.2c-5.9,0-11.5,3.2-14.4,8.4
			c-4.6,8-1.8,18.2,6.1,22.7c2.5,1.5,5.4,2.2,8.3,2.2C121.5,356.4,127,353.2,130,348z"/>
		<path class="st1" d="M221.9,390.3c2.5,1.5,5.4,2.2,8.3,2.2c5.9,0,11.4-3.2,14.4-8.3c2.2-3.8,2.8-8.3,1.7-12.6
			c-1.1-4.3-3.9-7.9-7.7-10.1c-2.5-1.5-5.4-2.2-8.3-2.2c-5.9,0-11.4,3.2-14.4,8.3C211.3,375.5,214,385.7,221.9,390.3z"/>
		<path class="st1" d="M193.9,441.1c-2.5-1.5-5.4-2.2-8.3-2.2c-5.9,0-11.5,3.2-14.4,8.4c-4.6,8-1.8,18.2,6.1,22.7
			c2.5,1.5,5.4,2.2,8.3,2.2c5.9,0,11.5-3.2,14.4-8.4C204.6,455.9,201.9,445.7,193.9,441.1z"/>
		<path class="st1" d="M183.8,392.5c2.9,0,5.8-0.8,8.3-2.2c3.8-2.2,6.6-5.8,7.7-10.1c1.1-4.3,0.6-8.8-1.7-12.6
			c-3-5.1-8.5-8.3-14.4-8.3c-2.9,0-5.8,0.8-8.3,2.2c-7.9,4.6-10.7,14.8-6.1,22.7C172.4,389.3,177.9,392.5,183.8,392.5z"/>
		<path class="st1" d="M230.2,439.7c-2.9,0-5.8,0.8-8.3,2.2c-7.9,4.6-10.7,14.8-6.1,22.7c3,5.1,8.5,8.3,14.4,8.3
			c2.9,0,5.8-0.8,8.3-2.2c3.8-2.2,6.6-5.8,7.7-10.1c1.1-4.3,0.6-8.8-1.7-12.6C241.7,442.9,236.2,439.7,230.2,439.7z"/>
		<path class="st1" d="M145.7,441.9c-2.5-1.5-5.4-2.2-8.3-2.2c-5.9,0-11.4,3.2-14.4,8.3c-4.6,7.9-1.9,18.1,6.1,22.7
			c2.5,1.5,5.4,2.2,8.3,2.2c5.9,0,11.4-3.2,14.4-8.3C156.4,456.7,153.6,446.5,145.7,441.9z"/>
		<path class="st1" d="M137.4,392.5c2.9,0,5.8-0.8,8.3-2.2c7.9-4.6,10.7-14.8,6.1-22.7c-3-5.1-8.5-8.3-14.4-8.3
			c-2.9,0-5.8,0.8-8.3,2.2c-7.9,4.6-10.7,14.8-6.1,22.7C125.9,389.3,131.5,392.5,137.4,392.5z"/>
	</g>
</g>
</svg>
