<?xml version="1.0" encoding="utf-8"?>
<!-- Generator: Adobe Illustrator 23.0.2, SVG Export Plug-In . SVG Version: 6.00 Build 0)  -->
<svg version="1.1" id="Layer_1" xmlns="http://www.w3.org/2000/svg" xmlns:xlink="http://www.w3.org/1999/xlink" x="0px" y="0px"
	 viewBox="0 0 600 600" style="enable-background:new 0 0 600 600;" xml:space="preserve">
<style type="text/css">
	.st0{fill:#FFCC00;}
	.st1{fill:#FFFFFF;}
</style>
<title>28</title>
<g>
	<path class="st0" d="M128.1,314.9h48.4l13.8-15.8v-15.9h-62.2c-8.7,0-15.8,7.1-15.8,15.8l0,0C112.3,307.8,119.4,314.9,128.1,314.9z
		"/>
	<path class="st0" d="M403.8,375.2l22-2.1c1.4-0.1,2.7-0.2,4.1-0.2c2.3,0,4.7,0.2,7,0.6l6.5,1.1l3.5-5.6
		c15.9-25.2,22.8-55.4,19.4-85.1c-3.3-29.6-16.8-57.5-38-78.5c-24.9-24.7-57.9-38.3-92.9-38.3c-35.3,0-68.5,13.8-93.4,38.8
		c-14.1,14.1-24.9,31.6-31,50.7l-7.3,22.5L403.8,375.2z"/>
	<path class="st0" d="M496.2,138.4L496.2,138.4c-6.2-6.2-16.2-6.2-22.4,0L441,171.2c-6.2,6.2-6.2,16.2,0,22.4l0,0
		c6.2,6.2,16.2,6.2,22.4,0l32.8-32.8C502.3,154.6,502.3,144.6,496.2,138.4z"/>
	<path class="st0" d="M480.5,299.1L480.5,299.1c0,8.7,7.1,15.8,15.8,15.8h46.5c8.7,0,15.8-7.1,15.8-15.8l0,0
		c0-8.7-7.1-15.8-15.8-15.8h-46.4C487.6,283.3,480.5,290.4,480.5,299.1z"/>
	<path class="st0" d="M229.9,171.2l-32.8-32.8c-6.2-6.2-16.2-6.2-22.4,0l0,0c-6.2,6.2-6.2,16.2,0,22.4l32.8,32.8
		c6.2,6.2,16.2,6.2,22.4,0l0,0C236.1,187.4,236.1,177.4,229.9,171.2z"/>
	<path class="st0" d="M335.4,75.9L335.4,75.9c-8.7,0-15.8,7.1-15.8,15.8v46.4c0,8.7,7.1,15.8,15.8,15.8l0,0
		c8.7,0,15.8-7.1,15.8-15.8V91.8C351.2,83,344.2,75.9,335.4,75.9z"/>
	<path class="st1" d="M124.6,522.4c-47.4-6.8-83.2-48-83.2-95.7c0-25.8,10.2-50.2,28.7-68.6c18.4-18.3,42.7-28.4,68.4-28.4
		c0,0,0,0,0.1,0c3,0,5.7-1.8,6.8-4.5c10.1-24.4,26.6-45.3,48.2-61c24.3-17.6,54.2-27.3,84.1-27.3c14.4,0,28.8,2.2,42.7,6.5
		c48.8,15.2,85.3,55,96.9,103.9c0.8,3.5,4,5.9,7.6,5.7c1.5-0.1,3.1-0.1,4.6-0.1c22.4,0,43.6,9,59.7,25.2s24.9,37.7,24.9,60.3
		c-0.1,47.1-38.4,85.4-85.4,85.4H138.3c-0.3,0-0.5,0-0.8,0l-1.5-0.2v0.4L124.6,522.4z"/>
</g>
</svg>
