<?xml version="1.0" encoding="utf-8"?>
<!-- Generator: Adobe Illustrator 23.0.2, SVG Export Plug-In . SVG Version: 6.00 Build 0)  -->
<svg version="1.1" id="Layer_1" xmlns="http://www.w3.org/2000/svg" xmlns:xlink="http://www.w3.org/1999/xlink" x="0px" y="0px"
	 viewBox="0 0 600 600" style="enable-background:new 0 0 600 600;" xml:space="preserve">
<style type="text/css">
	.st0{fill:#FFCC00;}
	.st1{fill:#BCBCBC;}
	.st2{fill:#BCBCBC;fill-opacity:0.4;}
</style>
<title>29</title>
<g>
	<path class="st0" d="M342.9,238.5c-0.8-0.1-1.4-0.7-1.3-1.5l1.1-14.4c5.3-68.2,63-121.6,131.4-121.6l0,0c18.2,0,36.2,3.8,52.9,11.1
		l0,0c3.6,1.6,5.9,5.1,5.9,9v10.8c0,3.9-2.3,7.5-5.9,9.1h-0.1c-50.6,22.1-73.9,81.2-51.8,131.9c10.1,23.3,28.5,41.7,51.8,51.8l0,0
		c3.6,1.6,6,5.1,6,9.1l0.1,10.6c0,4-2.3,7.6-5.9,9.2l0,0c-7.6,3.4-15.6,6-23.8,7.8l-14,3.2l-52-28.8L342.9,238.5z"/>
	<path class="st1" d="M502.6,345.5c-17.9-13.7-39.9-19.6-61.8-16.8c-9.8-51.8-47.4-94.5-98.3-110.3c-36.6-11.4-75.4-7.8-109.2,10
		c-31.5,16.5-55.2,43.5-67.5,76.6c-24.9-1.3-49.5,7.1-68.6,23.8C75.9,347.3,63.7,374,63.7,402c0,47.7,35.8,88.9,83.2,95.7l12.3,1.1
		c1.1,0.1,290.9,0.2,291.7,0.2h0.1c47.1-0.1,85.4-38.4,85.4-85.5C536.3,387.1,523.6,361.7,502.6,345.5z"/>
	<path class="st2" d="M489.2,452.1c-10.3,10-23.9,15.5-38.3,15.3h-0.2H161.4l-7-0.6l-3.2-0.5c-32-4.6-56.1-32.3-56.1-64.4
		c0-19.5,8.8-37.9,24.1-50.5c15.3-12.5,35.1-17.5,54.4-13.7l0,0c2.5,0.5,5.1,0,7.2-1.3l6.7-4.2c2.2-1.3,3.7-3.5,4.4-5.9l0,0
		c12.5-46.7,53.4-79.9,101.7-82.6c29.8-1.7,58.5,8.4,80.7,28.3s35.4,47.3,37,77.1l0,0c0.2,3.2,1.8,6.1,4.5,7.8l7.8,5.1
		c2.7,1.8,6,2.1,9,1c5.8-2.2,11.9-3.3,18.2-3.4c0.4,0,0.9,0,1.3,0c14.4,0.2,27.8,6,37.9,16.2c10,10.3,15.5,23.9,15.3,38.3
		C505.3,428.6,499.5,442,489.2,452.1z"/>
	<path class="st0" d="M103.3,251.1c9.6,5,17.5,12.9,22.5,22.5c5-9.6,12.9-17.5,22.5-22.5c-9.6-5-17.5-12.9-22.5-22.5
		C120.8,238.2,113,246.1,103.3,251.1z"/>
	<path class="st0" d="M196.2,181.4c9.6,5,17.5,12.9,22.5,22.5c5-9.6,12.9-17.5,22.5-22.5c-9.6-5-17.5-12.9-22.5-22.5
		C213.7,168.5,205.8,176.4,196.2,181.4L196.2,181.4z"/>
</g>
</svg>
