<?xml version="1.0" encoding="utf-8"?>
<!-- Generator: Adobe Illustrator 23.0.2, SVG Export Plug-In . SVG Version: 6.00 Build 0)  -->
<svg version="1.1" id="Layer_1" xmlns="http://www.w3.org/2000/svg" xmlns:xlink="http://www.w3.org/1999/xlink" x="0px" y="0px"
	 viewBox="0 0 600 600" style="enable-background:new 0 0 600 600;" xml:space="preserve">
<style type="text/css">
	.st0{fill:#FFCC00;}
	.st1{fill:#BCBCBC;}
</style>
<title>3</title>
<g>
	<g>
		<path class="st0" d="M170.4,515.8l-0.2-0.2c-6.1-6.1-6.1-16,0-22.1l12.3-12.3c6.2-6.2,6.1-16.3-0.2-22.4l0,0
			c-6.3-6.1-6.4-16.1-0.3-22.3l35-35c6.1-6.1,16-6.1,22.1,0l0.2,0.2c6.1,6.1,6.1,16,0,22.1l-12.9,12.9c-6.2,6.2-6.1,16.3,0.3,22.4
			l0,0c6.4,6.1,6.5,16.2,0.3,22.4l-34.4,34.4C186.5,521.9,176.5,521.9,170.4,515.8z"/>
		<path class="st0" d="M263.3,515.8l-0.3-0.3c-6.1-6.1-6.1-16,0-22.1l12.2-12.2c6.2-6.2,6.1-16.3-0.2-22.4l0,0
			c-6.3-6.1-6.4-16.2-0.2-22.4l35.1-35.1c6.1-6.1,16-6.1,22.1,0l0.2,0.2c6.1,6.1,6.1,16,0,22.1l-12.9,12.9
			c-6.2,6.2-6.1,16.3,0.2,22.4l0,0c6.3,6.1,6.4,16.1,0.3,22.3l-34.4,34.4C279.4,521.9,269.4,521.9,263.3,515.8z"/>
		<path class="st0" d="M356.2,515.8l-0.3-0.3c-6.1-6.1-6.1-16,0-22.1l12.2-12.2c6.2-6.2,6.1-16.3-0.2-22.4l0,0
			c-6.3-6.1-6.4-16.2-0.2-22.4l35-35c6.1-6.1,16-6.1,22.1,0l0.2,0.2c6.1,6.1,6.1,16,0,22.1l-12.9,12.9c-6.2,6.2-6.1,16.3,0.3,22.3
			l0,0c6.3,6.1,6.4,16.1,0.3,22.3l-34.4,34.4C372.3,521.9,362.3,521.9,356.2,515.8z"/>
	</g>
	<path class="st1" d="M502.5,213.2c-17.9-13.7-39.9-19.6-61.8-16.8c-9.8-51.8-47.4-94.5-98.3-110.3c-36.6-11.4-75.4-7.8-109.2,10
		c-31.5,16.5-55.2,43.5-67.5,76.6c-24.9-1.3-49.5,7.1-68.6,23.8c-21.3,18.5-33.5,45.2-33.5,73.2c0,47.7,35.8,88.9,83.2,95.7
		l12.3,1.1c1.1,0.1,290.9,0.2,291.7,0.2h0.1c47.1-0.1,85.4-38.4,85.4-85.5C536.3,254.8,523.6,229.4,502.5,213.2z"/>
</g>
</svg>
