<?xml version="1.0" encoding="utf-8"?>
<!-- Generator: Adobe Illustrator 23.0.2, SVG Export Plug-In . SVG Version: 6.00 Build 0)  -->
<svg version="1.1" id="Layer_1" xmlns="http://www.w3.org/2000/svg" xmlns:xlink="http://www.w3.org/1999/xlink" x="0px" y="0px"
	 viewBox="0 0 600 600" style="enable-background:new 0 0 600 600;" xml:space="preserve">
<style type="text/css">
	.st0{fill:#FFFFFF;}
	.st1{fill:#FFCC00;}
</style>
<title>30</title>
<path class="st0" d="M235.8,266.5c-11.2,3.4-22,8.2-32.1,14.2c-3.6,2.1-7.1,4.4-10.4,6.9c-21.6,15.7-38.1,36.6-48.2,61
	c-1.1,2.8-3.8,4.5-6.8,4.5l0,0c-25.7,0-50,10.1-68.4,28.4c-18.5,18.4-28.7,42.8-28.7,68.6c0,47.7,35.8,88.9,83.2,95.7l11.4,1.5v-0.5
	l1.5,0.2c0.3,0,0.5,0,0.8,0h290.4c47-0.1,85.4-38.4,85.4-85.4c0-22.7-8.9-44.1-25-60.4S451.6,376,429.2,376c-1.5,0-3.1,0-4.6,0.1
	c-1,0.1-2.1-0.1-3-0.5c-2.3-0.8-4-2.8-4.6-5.2c-2.1-8.9-5-17.4-8.7-25.6L235.8,266.5z"/>
<path class="st1" d="M441.1,381.3L441.1,381.3c-6.2,6.2-6.3,16.2-0.1,22.4l18.4,18.5l0.2,0.1l14.3,14.3c6.2,6.2,16.2,6.2,22.4,0l0,0
	c6.2-6.2,6.2-16.2,0-22.4L474.1,392l-10.5-10.6C457.4,375.1,447.3,375.1,441.1,381.3z"/>
<path class="st1" d="M428.7,182.6c-24.9-24.9-58-38.6-93.3-38.6s-68.3,13.7-93.1,38.6c-26,26-39.8,61.4-38.6,97.9
	c0.1,2.2,0.2,4.4,0.4,6.5c0.3,4.6,1,9.1,2,13.6c0.9,4.8,2,9.4,3.4,13.9c16.7,54.8,67.5,93.2,125.8,93.2c8.2,0,16.4-0.8,24.5-2.3
	c10.1-1.9,19.8-4.9,29.1-9c4.5-2,8.8-4.2,13.1-6.7c4-2.3,7.8-4.8,11.4-7.6c2.8-2,5.5-4.1,8.1-6.3c2.5-2.1,4.9-4.4,7.2-6.8
	c24.8-24.7,38.5-57.7,38.6-92.8C467.4,240.7,453.7,207.5,428.7,182.6z"/>
<path class="st1" d="M174.8,436.5L174.8,436.5c6.2,6.2,16.2,6.2,22.4,0l32.8-32.8c6.2-6.2,6.2-16.2,0-22.4l0,0
	c-6.2-6.2-16.2-6.2-22.4,0l-32.8,32.8C168.8,420.3,168.8,430.3,174.8,436.5z"/>
<path class="st1" d="M496.3,115.1L496.3,115.1c-6.2-6.2-16.2-6.2-22.4,0l-32.8,32.8c-6.2,6.2-6.2,16.2,0,22.4l0,0
	c6.2,6.2,16.2,6.2,22.4,0l32.8-32.8C502.4,131.2,502.4,121.2,496.3,115.1z"/>
<path class="st1" d="M174.6,260h-46.4c-8.7,0-15.8,7.1-15.8,15.8l0,0c0,8.7,7.1,15.8,15.8,15.8h46.4c8.7,0,15.8-7.1,15.8-15.8l0,0
	C190.4,267,183.3,260,174.6,260z"/>
<path class="st1" d="M480.6,275.8L480.6,275.8c0,8.7,7.1,15.8,15.8,15.8H543c8.7,0,15.8-7.1,15.8-15.8l0,0c0-8.7-7.1-15.8-15.8-15.8
	h-46.4C487.7,260,480.6,267,480.6,275.8z"/>
<path class="st1" d="M230.1,147.9l-32.8-32.8c-6.2-6.2-16.2-6.2-22.4,0l0,0c-6.2,6.2-6.2,16.2,0,22.4l32.8,32.8
	c6.2,6.2,16.2,6.2,22.4,0l0,0C236.3,164.1,236.3,154.1,230.1,147.9z"/>
<path class="st1" d="M335.5,52.6L335.5,52.6c-8.7,0-15.8,7.1-15.8,15.8v46.4c0,8.7,7.1,15.8,15.8,15.8l0,0c8.7,0,15.8-7.1,15.8-15.8
	V68.4C351.3,59.7,344.3,52.6,335.5,52.6z"/>
<path class="st1" d="M335.5,498.9L335.5,498.9c8.7,0,15.8-7.1,15.8-15.8v-46.4c0-8.7-7.1-15.8-15.8-15.8l0,0
	c-8.7,0-15.8,7.1-15.8,15.8v46.4C319.7,491.8,326.8,498.9,335.5,498.9z"/>
</svg>
