<?xml version="1.0" encoding="utf-8"?>
<!-- Generator: Adobe Illustrator 23.0.2, SVG Export Plug-In . SVG Version: 6.00 Build 0)  -->
<svg version="1.1" id="Layer_1" xmlns="http://www.w3.org/2000/svg" xmlns:xlink="http://www.w3.org/1999/xlink" x="0px" y="0px"
	 viewBox="0 0 600 600" style="enable-background:new 0 0 600 600;" xml:space="preserve">
<style type="text/css">
	.st0{fill:#FFCC00;}
</style>
<title>31</title>
<g>
	<path class="st0" d="M508.8,208.2l0.2-0.1c3.6-2,5.8-5.8,5.8-9.9v-9c0-4.1-2.2-7.9-5.8-9.9l0,0c-16.8-7.4-35-11.2-53.4-11.2l0,0
		c-72.7,0.1-131.8,59.4-131.7,132.1c0.1,72.6,59.3,131.7,131.9,131.7h0.2c18.3,0,36-3.8,52.8-11.2l0.2-0.1c3.6-2,5.8-5.8,5.8-9.9v-9
		c0-4.1-2.2-7.9-5.8-9.9l-0.2-0.1c-23.3-10.1-41.7-28.5-51.8-51.8C434.9,289.3,458.1,230.2,508.8,208.2z"/>
	<path class="st0" d="M85.2,300c9.6,5,17.5,12.9,22.5,22.5c5-9.6,12.9-17.5,22.5-22.5c-9.6-5-17.5-12.9-22.5-22.5
		C102.7,287.2,94.8,295,85.2,300z"/>
	<path class="st0" d="M178.1,230.3c9.6,5,17.5,12.9,22.5,22.5c5-9.6,12.9-17.5,22.5-22.5c-9.6-5-17.5-12.9-22.5-22.5
		C195.6,217.5,187.7,225.3,178.1,230.3L178.1,230.3z"/>
</g>
</svg>
