<?xml version="1.0" encoding="utf-8"?>
<!-- Generator: Adobe Illustrator 23.0.2, SVG Export Plug-In . SVG Version: 6.00 Build 0)  -->
<svg version="1.1" id="Layer_1" xmlns="http://www.w3.org/2000/svg" xmlns:xlink="http://www.w3.org/1999/xlink" x="0px" y="0px"
	 viewBox="0 0 600 600" style="enable-background:new 0 0 600 600;" xml:space="preserve">
<style type="text/css">
	.st0{fill:#FFCC00;}
	.st1{fill:#FF9802;}
	.st2{fill:#FFFFFF;}
</style>
<title>3200</title>
<g>
	<path class="st0" d="M299.4,411.5c-61.6,0-111.5-50-111.5-111.6s49.9-111.5,111.5-111.5S411,238.3,411,299.9l0,0
		C410.9,361.5,361,411.4,299.4,411.5z"/>
	<g>
		<path class="st0" d="M148.7,450.6L148.7,450.6c6.2,6.2,16.2,6.2,22.4,0l32.8-32.8c6.2-6.2,6.2-16.2,0-22.4l0,0
			c-6.2-6.2-16.2-6.2-22.4,0l-32.8,32.8C142.6,434.4,142.6,444.4,148.7,450.6z"/>
		<path class="st0" d="M450.2,149.3L450.2,149.3c-6.2-6.2-16.2-6.2-22.4,0L395,182.1c-6.2,6.2-6.2,16.2,0,22.4l0,0
			c6.2,6.2,16.2,6.2,22.4,0l32.8-32.8C456.3,165.4,456.3,155.3,450.2,149.3z"/>
		<path class="st0" d="M203.9,182.1l-32.8-32.8c-6.2-6.2-16.2-6.2-22.4,0l0,0c-6.2,6.2-6.2,16.2,0,22.4l32.8,32.8
			c6.2,6.2,16.2,6.2,22.4,0l0,0C210.1,198.3,210.1,188.3,203.9,182.1z"/>
		<path class="st0" d="M395,417.8l32.8,32.8c6.2,6.2,16.2,6.2,22.4,0l0,0c6.2-6.2,6.2-16.2,0-22.4l-32.8-32.8
			c-6.2-6.2-16.2-6.2-22.4,0l0,0C388.8,401.6,388.8,411.6,395,417.8z"/>
		<path class="st0" d="M299.4,86.8L299.4,86.8c-8.7,0-15.8,7.1-15.8,15.8v46.4c0,8.7,7.1,15.8,15.8,15.8l0,0
			c8.7,0,15.8-7.1,15.8-15.8v-46.4C315.2,93.8,308.2,86.8,299.4,86.8z"/>
		<path class="st0" d="M299.4,513.2L299.4,513.2c8.7,0,15.8-7.1,15.8-15.8V451c0-8.7-7.1-15.8-15.8-15.8l0,0
			c-8.7,0-15.8,7.1-15.8,15.8v46.4C283.6,506,290.7,513.2,299.4,513.2z"/>
		<path class="st0" d="M485.1,247.6l-34.4,66.2c-0.8,1.6-2.4,2.5-4.2,2.5h-26.6c0,0-0.1,0-0.1-0.1c0.7-5.3,1.1-10.8,1.1-16.3
			c0-67-54.5-121.5-121.5-121.5c-67,0.1-121.5,54.6-121.5,121.6c0,5.5,0.4,11,1.1,16.3c0,0,0,0.1-0.1,0.1h-25.7
			c-1.7,0-3.4-1-4.2-2.5l-34.4-66.2c-2.9-5.6-8.7-9.1-15-9.1h-42c-8.3,0-15,6.7-15,15l0,0c0,8.3,6.7,15,15,15h31.7
			c1.5,0,2.8,0.8,3.5,2.1l34.7,66.7c2.9,5.6,8.7,9.1,15,9.1h44.6c0,0,0,0,0.1,0c18.3,44,61.7,75.1,112.3,75.1l0,0
			c50.5-0.1,93.9-31.1,112.2-75.1c0,0,0,0,0.1,0h45.6c6.3,0,12.1-3.5,15-9.1l34.7-66.7c0.7-1.3,2-2.1,3.5-2.1h31.7
			c8.3,0,15-6.7,15-15l0,0c0-8.3-6.7-15-15-15h-42.1C493.8,238.6,488,242.1,485.1,247.6z M299.4,391.5c-49.9,0-90.6-40.2-91.5-89.9
			c-0.9-51.4,41.4-93.2,92.8-93.2h1.3c49.2,1.5,88.9,42,88.9,91.5C391,350.4,349.9,391.5,299.4,391.5z"/>
	</g>
	<path class="st1" d="M381.6,279.7c0,45.4-36.8,82.2-82.2,82.2s-82.2-36.8-82.2-82.2H381.6z"/>
	<path class="st1" d="M252.3,261.4c0-8.6,7-15.6,15.6-15.6s15.6,7,15.6,15.6H252.3z"/>
	<path class="st1" d="M315.2,261.4c0-8.6,7-15.6,15.6-15.6s15.6,7,15.6,15.6H315.2z"/>
	<path class="st2" d="M373,316.3c5.5-11,8.6-23.4,8.6-36.6H217.3c0,13.1,3.1,25.6,8.6,36.6H373z"/>
</g>
</svg>
