<?xml version="1.0" encoding="utf-8"?>
<!-- Generator: Adobe Illustrator 23.0.2, SVG Export Plug-In . SVG Version: 6.00 Build 0)  -->
<svg version="1.1" id="Layer_1" xmlns="http://www.w3.org/2000/svg" xmlns:xlink="http://www.w3.org/1999/xlink" x="0px" y="0px"
	 viewBox="0 0 600 600" style="enable-background:new 0 0 600 600;" xml:space="preserve">
<style type="text/css">
	.st0{fill:#BCBCBC;}
	.st1{fill:#FFCC00;}
</style>
<title>33</title>
<g>
	<path class="st0" d="M502.5,359.7c-17.9-13.7-39.9-19.6-61.8-16.8c-9.8-51.8-47.4-94.5-98.3-110.3c-36.6-11.4-75.4-7.8-109.2,10
		c-31.5,16.5-55.2,43.5-67.5,76.6c-24.9-1.3-49.5,7.1-68.6,23.8c-21.3,18.5-33.5,45.2-33.5,73.2c0,47.7,35.8,88.9,83.2,95.7
		l12.3,1.1c1.1,0.1,290.9,0.2,291.7,0.2h0.1c47.1-0.1,85.4-38.4,85.4-85.5C536.3,401.3,523.6,375.9,502.5,359.7z"/>
	<path class="st1" d="M526.9,354.3"/>
	<path class="st1" d="M103.2,217.2c9.6,5,17.5,12.9,22.5,22.5c5-9.6,12.9-17.5,22.5-22.5c-9.6-5-17.5-12.9-22.5-22.5
		C120.7,204.3,112.8,212.2,103.2,217.2z"/>
	<path class="st1" d="M196,147.5c9.6,5,17.5,12.9,22.5,22.5c5-9.6,12.9-17.5,22.5-22.5c-9.6-5-17.5-12.9-22.5-22.5
		C213.5,134.6,205.7,142.5,196,147.5L196,147.5z"/>
	<path class="st1" d="M473.6,178.7c10.1-23.3,28.6-41.7,51.8-51.8l0,0c3.6-1.6,6-5.2,6-9.1v-10.7c0-4-2.3-7.6-6-9.2l0,0
		c-16.8-7.4-34.6-11.1-52.8-11.1c-52.4,0-99.8,31-120.8,79c-7.3,16.8-11.1,34.6-11.1,52.8c-0.1,10.7,1.3,21.4,4,31.7
		c1.3,5.8,3.1,11.5,5.3,16.9c11,27.8,31.4,51.2,57.4,65.9c5.2,3.2,10.8,5.8,16.6,7.9c15.3,6.3,31.5,9.5,48,9.5h0.6
		c18.1,0,36.1-3.8,52.7-11l0,0c3.6-1.6,6-5.2,6-9.2v-10.7c0-4-2.4-7.6-6-9.2l0,0C474.8,288.5,451.6,229.4,473.6,178.7z"/>
</g>
</svg>
