<?xml version="1.0" encoding="utf-8"?>
<!-- Generator: Adobe Illustrator 23.0.2, SVG Export Plug-In . SVG Version: 6.00 Build 0)  -->
<svg version="1.1" id="Layer_1" xmlns="http://www.w3.org/2000/svg" xmlns:xlink="http://www.w3.org/1999/xlink" x="0px" y="0px"
	 viewBox="0 0 600 600" style="enable-background:new 0 0 600 600;" xml:space="preserve">
<style type="text/css">
	.st0{fill:#BCBCBC;}
	.st1{fill:#039BE5;}
	.st2{fill:#63CCFF;}
</style>
<title>35</title>
<g>
	<path class="st0" d="M502.6,191.5c-17.9-13.7-39.9-19.6-61.8-16.8c-9.8-51.8-47.4-94.5-98.3-110.3c-36.6-11.4-75.4-7.8-109.2,10
		c-31.5,16.5-55.2,43.5-67.5,76.6c-24.9-1.3-49.5,7.1-68.6,23.8C75.9,193.3,63.7,220,63.7,248c0,47.7,35.8,88.9,83.2,95.7l12.3,1.1
		c1.1,0.1,290.9,0.2,291.7,0.2h0.1c47.1-0.1,85.4-38.4,85.4-85.5C536.3,233.1,523.6,207.7,502.6,191.5z"/>
	<g>
		<g>
			<path class="st0" d="M143.9,464.7c-2.5-1.5-5.4-2.2-8.3-2.2c-5.9,0-11.4,3.2-14.4,8.3c-2.2,3.8-2.8,8.3-1.7,12.6
				c1.1,4.3,3.9,7.9,7.7,10.1c2.5,1.5,5.4,2.2,8.3,2.2c5.9,0,11.4-3.2,14.4-8.3C154.4,479.5,151.8,469.3,143.9,464.7z"/>
			<path class="st1" d="M246.4,425.1c-2.5-1.5-5.4-2.2-8.3-2.2c-5.9,0-11.4,3.2-14.4,8.3c-2.2,3.8-2.8,8.3-1.7,12.6
				c1.1,4.3,3.9,7.9,7.7,10.1c2.5,1.5,5.4,2.2,8.3,2.2c5.9,0,11.4-3.2,14.4-8.3C257.1,439.9,254.4,429.7,246.4,425.1z"/>
			<path class="st0" d="M302,510.8c-2.5-1.5-5.4-2.2-8.3-2.2c-5.9,0-11.4,3.2-14.4,8.3c-4.6,7.9-1.9,18.1,6.1,22.7
				c2.5,1.5,5.4,2.2,8.3,2.2c5.9,0,11.4-3.2,14.4-8.3C312.7,525.6,310,515.4,302,510.8z"/>
		</g>
		<g>
			<path class="st2" d="M392.6,407.4l-74.2,74.2c-6.2,6.2-6.2,16.2,0,22.3l0,0c6.2,6.2,16.2,6.2,22.3,0l74.2-74.2
				c6.2-6.2,6.2-16.2,0-22.3l0,0C408.7,401.3,398.7,401.3,392.6,407.4z"/>
			<path class="st2" d="M350.8,379.6L236.1,496.3c-10.4-20.4-31.6-34-55.4-34l0,0c-8.7,0-15.8,7.1-15.8,15.8l0,0
				c0,8.7,7.1,15.8,15.8,15.8l0,0c16.9,0,30.6,13.8,30.6,30.6v1.4c0,7.1,4.8,13.4,11.7,15.2l1.4,0.4c5.5,1.5,11.3-0.1,15.3-4.1
				l133.5-135.5c6.2-6.2,6.2-16.2,0-22.3l0,0C367,373.4,357,373.4,350.8,379.6z"/>
		</g>
	</g>
	<path class="st1" d="M276.9,379.6l-16.3,16.3c-6.2,6.2-6.2,16.2,0,22.4l0,0c6.2,6.2,16.2,6.2,22.4,0l16.3-16.3
		c6.2-6.2,6.2-16.2,0-22.4l0,0C293,373.4,283,373.4,276.9,379.6z"/>
	<path class="st1" d="M194.8,418.3L194.8,418.3c6.2,6.2,16.2,6.2,22.4,0l16.3-16.3c6.2-6.2,6.2-16.2,0-22.4l0,0
		c-6.2-6.2-16.2-6.2-22.4,0l-16.3,16.3C188.6,402.1,188.6,412.1,194.8,418.3z"/>
</g>
</svg>
