<?xml version="1.0" encoding="utf-8"?>
<!-- Generator: Adobe Illustrator 23.0.2, SVG Export Plug-In . SVG Version: 6.00 Build 0)  -->
<svg version="1.1" id="Layer_1" xmlns="http://www.w3.org/2000/svg" xmlns:xlink="http://www.w3.org/1999/xlink" x="0px" y="0px"
	 viewBox="0 0 600 600" style="enable-background:new 0 0 600 600;" xml:space="preserve">
<style type="text/css">
	.st0{fill:#C6202F;}
	.st1{fill:#FFABB5;enable-background:new    ;}
</style>
<title>36</title>
<path class="st0" d="M362.1,339.1V125.9c0-34.3-27.9-62.2-62.2-62.2s-62.2,27.9-62.2,62.2v213.2c-28.7,20.2-46.4,53.7-46.4,88.6
	c0.1,59.9,48.8,108.6,108.7,108.7c59.9-0.1,108.6-48.8,108.5-108.7C408.5,392.8,390.9,359.3,362.1,339.1z M336.2,359.9l2.3,1.3
	c24.2,14.1,38.6,39,38.6,66.4c0,43.1-35.6,78-78.9,77c-41-0.9-74.4-34.5-75.2-75.5c-0.5-28.1,14-53.6,38.6-67.9l2.3-1.3
	c3.4-2,5.5-5.6,5.5-9.6V125.8c0-16.8,13.7-30.6,30.6-30.6c16.9,0.1,30.6,13.8,30.7,30.7v224.4C330.7,354.3,332.8,357.9,336.2,359.9z
	"/>
<path class="st1" d="M336.2,359.9l2.3,1.3c24.2,14.1,38.6,39,38.6,66.4c0,43.1-35.6,78-78.9,77c-41-0.9-74.4-34.5-75.2-75.5
	c-0.5-28.1,14-53.6,38.6-67.9l2.3-1.3c3.4-2,5.5-5.6,5.5-9.6V125.8c0-16.8,13.7-30.6,30.6-30.6c16.9,0.1,30.6,13.8,30.7,30.7v224.4
	C330.7,354.3,332.8,357.9,336.2,359.9z"/>
<path class="st0" d="M328.1,379.2l-10.9-6.3c-7.1-4.1-11.4-11.7-11.4-19.9V131.7c0-3.2-2.6-5.8-5.8-5.8l0,0c-3.2,0-5.8,2.6-5.8,5.8
	V353c0,8.2-4.3,15.8-11.4,19.9l-10.9,6.3c-17.8,10.3-28.3,28.5-28.3,48.5c0,31.1,25.3,56.4,56.4,56.4l0,0
	c31.1,0,56.4-25.3,56.4-56.4C356.4,407.6,345.8,389.5,328.1,379.2z"/>
</svg>
