<?xml version="1.0" encoding="utf-8"?>
<!-- Generator: Adobe Illustrator 23.0.2, SVG Export Plug-In . SVG Version: 6.00 Build 0)  -->
<svg version="1.1" id="Layer_1" xmlns="http://www.w3.org/2000/svg" xmlns:xlink="http://www.w3.org/1999/xlink" x="0px" y="0px"
	 viewBox="0 0 600 600" style="enable-background:new 0 0 600 600;" xml:space="preserve">
<style type="text/css">
	.st0{fill:#FFCC00;}
	.st1{fill:#039BE5;}
	.st2{fill:#BCBCBC;}
</style>
<title>4</title>
<g>
	<path class="st0" d="M326.4,436.7l12.9-12.9c6.1-6.1,6.1-16,0-22.1l-0.2-0.2c-6.1-6.1-16-6.1-22.2,0l-35,35
		c-6.2,6.2-6.1,16.3,0.2,22.4l0,0c6.3,6.1,6.5,16.2,0.2,22.4l-12.2,12.2c-6.1,6.1-6.1,16,0,22.2l0.2,0.2c6.1,6.1,16,6.1,22.2,0
		l34.3-34.3c6.2-6.2,6.1-16.3-0.2-22.4l0,0C320.3,453,320.2,442.9,326.4,436.7z"/>
	<g>
		<path class="st1" d="M224.4,440.2L224.4,440.2c6.2,6.2,16.2,6.2,22.4,0l16.3-16.3c6.2-6.2,6.2-16.2,0-22.4l0,0
			c-6.2-6.2-16.2-6.2-22.4,0l-16.3,16.3C218.2,424,218.2,434,224.4,440.2z"/>
		<path class="st1" d="M173.2,491.4L173.2,491.4c6.2,6.2,16.2,6.2,22.4,0l19.1-19.1c6.2-6.2,6.2-16.2,0-22.4l0,0
			c-6.2-6.2-16.2-6.2-22.4,0L173.2,469C167,475.3,167,485.3,173.2,491.4z"/>
		<path class="st1" d="M161,401.2l-16.9,17c-6,6-6,15.7,0,21.8l0.6,0.6c6,6,15.7,6,21.8,0l16.9-16.9c6-6,6-15.7,0-21.8l-0.6-0.7
			C176.8,395.2,167,395.2,161,401.2z"/>
		<path class="st1" d="M370,491.4L370,491.4c6.2,6.2,16.2,6.2,22.4,0l19.1-19.1c6.2-6.2,6.2-16.2,0-22.4l0,0
			c-6.2-6.2-16.2-6.2-22.4,0L370,469C363.8,475.3,363.8,485.3,370,491.4z"/>
		<path class="st1" d="M437.5,401.5l-16.3,16.3c-6.2,6.2-6.2,16.2,0,22.4l0,0c6.2,6.2,16.2,6.2,22.4,0l16.3-16.3
			c6.2-6.2,6.2-16.2,0-22.4l0,0C453.7,395.4,443.7,395.4,437.5,401.5z"/>
	</g>
	<path class="st2" d="M502.5,213.2c-17.9-13.7-39.9-19.6-61.8-16.8c-9.8-51.8-47.4-94.5-98.3-110.3c-36.6-11.4-75.4-7.8-109.2,10
		c-31.5,16.5-55.2,43.5-67.5,76.6c-24.9-1.3-49.5,7.1-68.6,23.8c-21.3,18.5-33.5,45.2-33.5,73.2c0,47.7,35.8,88.9,83.2,95.7
		l12.3,1.1c1.1,0.1,290.9,0.2,291.7,0.2h0.1c47.1-0.1,85.4-38.4,85.4-85.5C536.3,254.8,523.6,229.4,502.5,213.2z"/>
</g>
</svg>
