<?xml version="1.0" encoding="utf-8"?>
<!-- Generator: Adobe Illustrator 23.0.2, SVG Export Plug-In . SVG Version: 6.00 Build 0)  -->
<svg version="1.1" id="Layer_1" xmlns="http://www.w3.org/2000/svg" xmlns:xlink="http://www.w3.org/1999/xlink" x="0px" y="0px"
	 viewBox="0 0 600 600" style="enable-background:new 0 0 600 600;" xml:space="preserve">
<style type="text/css">
	.st0{fill:#BCBCBC;}
	.st1{fill:#039BE5;}
</style>
<title>40</title>
<g>
	<path class="st0" d="M502.5,230.4c-17.9-13.7-39.9-19.6-61.8-16.8c-9.8-51.8-47.4-94.5-98.3-110.3c-36.6-11.4-75.4-7.8-109.2,10
		c-31.5,16.5-55.2,43.5-67.5,76.6c-24.9-1.3-49.5,7.1-68.6,23.8c-21.3,18.5-33.5,45.2-33.5,73.2c0,47.7,35.8,88.9,83.2,95.7
		l12.3,1.1c1.1,0.1,290.9,0.2,291.7,0.2h0.1c47.1-0.1,85.4-38.4,85.4-85.5C536.3,272,523.6,246.6,502.5,230.4z"/>
	<g>
		<path class="st1" d="M282.6,431c6.2-6.2,6.2-16.2,0-22.4c-6.2-6.2-16.2-6.2-22.4,0l-16.3,16.3c-6.2,6.2-6.2,16.2,0,22.4
			c6.2,6.2,16.2,6.2,22.4,0L282.6,431z"/>
		<path class="st1" d="M218.7,457l-19.1,19.1c-6.2,6.2-6.2,16.2,0,22.4c6.2,6.2,16.2,6.2,22.4,0l19.1-19.1c6.2-6.2,6.2-16.2,0-22.4
			S224.9,450.8,218.7,457z"/>
		<path class="st1" d="M355.7,431c6.2-6.3,6.2-16.3,0-22.4c-6.2-6.2-16.2-6.2-22.4,0L317,424.9c-6.2,6.2-6.2,16.2,0,22.4
			c6.2,6.2,16.2,6.2,22.4,0L355.7,431z"/>
		<path class="st1" d="M288.3,457l-19.1,19.1c-6.1,6.2-6.1,16.2,0,22.4c6.2,6.2,16.2,6.2,22.4,0l19.1-19.1c6.2-6.2,6.2-16.2,0-22.4
			S294.5,450.8,288.3,457z"/>
		<path class="st1" d="M428.8,408.6c-6.2-6.2-16.2-6.2-22.4,0l-16.3,16.3c-6.2,6.2-6.2,16.2,0,22.4c6.2,6.2,16.2,6.2,22.4,0
			l16.3-16.3C435,424.8,435,414.8,428.8,408.6z"/>
		<path class="st1" d="M358,457l-19.1,19.1c-6.2,6.2-6.2,16.2,0,22.4c6.2,6.2,16.2,6.2,22.4,0l19.1-19.1c6.2-6.2,6.2-16.2,0-22.4
			S364.2,450.8,358,457z"/>
		<path class="st1" d="M209.5,408.6c-6.2-6.2-16.2-6.2-22.4,0l-16.3,16.3c-6.2,6.2-6.2,16.2,0,22.4c6.2,6.2,16.2,6.2,22.4,0
			l16.3-16.3C215.7,424.8,215.7,414.8,209.5,408.6z"/>
	</g>
</g>
</svg>
