<?xml version="1.0" encoding="utf-8"?>
<!-- Generator: Adobe Illustrator 23.0.2, SVG Export Plug-In . SVG Version: 6.00 Build 0)  -->
<svg version="1.1" id="Layer_1" xmlns="http://www.w3.org/2000/svg" xmlns:xlink="http://www.w3.org/1999/xlink" x="0px" y="0px"
	 viewBox="0 0 600 600" style="enable-background:new 0 0 600 600;" xml:space="preserve">
<style type="text/css">
	.st0{fill:#BCBCBC;}
</style>
<title>41</title>
<g>
	<path class="st0" d="M502.5,212.5c-17.9-13.7-39.9-19.6-61.8-16.8c-9.8-51.8-47.4-94.5-98.3-110.3c-36.6-11.4-75.4-7.8-109.2,10
		c-31.5,16.5-55.2,43.5-67.5,76.6c-24.9-1.3-49.5,7.1-68.6,23.8C75.8,214.3,63.6,241,63.6,269c0,47.7,35.8,88.9,83.2,95.7l12.3,1.1
		c1.1,0.1,290.9,0.2,291.7,0.2h0.1c47.1-0.1,85.4-38.4,85.4-85.5C536.3,254.1,523.6,228.7,502.5,212.5z"/>
	<g>
		<path class="st0" d="M218.5,348.7c-9.2,0-16.6,7.5-16.6,16.6s7.5,16.6,16.6,16.6c9.2,0,16.6-7.5,16.6-16.6
			S227.7,348.7,218.5,348.7z"/>
		<path class="st0" d="M218.5,395.2c-9.2,0-16.6,7.5-16.6,16.6c0,9.2,7.5,16.6,16.6,16.6c9.2,0,16.6-7.5,16.6-16.6
			C235.2,402.6,227.7,395.2,218.5,395.2z"/>
		<path class="st0" d="M218.5,441.6c-9.2,0-16.6,7.5-16.6,16.6c0,9.2,7.5,16.6,16.6,16.6c9.2,0,16.6-7.5,16.6-16.6
			C235.2,449,227.7,441.6,218.5,441.6z"/>
		<path class="st0" d="M163.8,402.9c2.5,1.5,5.4,2.2,8.3,2.2c5.9,0,11.4-3.2,14.4-8.3c4.6-7.9,1.9-18.1-6.1-22.7
			c-2.5-1.5-5.4-2.2-8.3-2.2c-5.9,0-11.4,3.2-14.4,8.3c-2.2,3.8-2.8,8.3-1.7,12.6C157.2,397.1,160,400.7,163.8,402.9z"/>
		<path class="st0" d="M273.3,420.6c-2.5-1.5-5.4-2.2-8.3-2.2c-5.9,0-11.4,3.2-14.4,8.3c-4.6,7.9-1.9,18.1,6.1,22.7
			c2.5,1.5,5.4,2.2,8.3,2.2c5.9,0,11.4-3.2,14.4-8.3C283.9,435.3,281.2,425.2,273.3,420.6z"/>
		<path class="st0" d="M172.1,418.4c-2.9,0-5.8,0.8-8.3,2.2c-3.8,2.2-6.6,5.8-7.7,10.1c-1.1,4.3-0.6,8.8,1.7,12.6
			c3,5.1,8.5,8.3,14.4,8.3c2.9,0,5.8-0.8,8.3-2.2c3.8-2.2,6.6-5.8,7.7-10.1c1.1-4.3,0.6-8.8-1.7-12.6
			C183.5,421.5,178,418.4,172.1,418.4z"/>
		<path class="st0" d="M265,371.9c-2.9,0-5.8,0.8-8.3,2.2c-7.9,4.6-10.7,14.8-6.1,22.7c3,5.1,8.5,8.3,14.4,8.3
			c2.9,0,5.8-0.8,8.3-2.2c7.9-4.6,10.7-14.8,6.1-22.7C276.4,375.1,270.9,371.9,265,371.9z"/>
		<path class="st0" d="M381.1,395.2c-9.2,0-16.6,7.5-16.6,16.6c0,9.2,7.5,16.6,16.6,16.6c9.2,0,16.6-7.5,16.6-16.6
			C397.7,402.6,390.2,395.2,381.1,395.2z"/>
		<path class="st0" d="M381.1,441.6c-9.2,0-16.6,7.5-16.6,16.6c0,9.2,7.5,16.6,16.6,16.6c9.2,0,16.6-7.5,16.6-16.6
			C397.7,449,390.2,441.6,381.1,441.6z"/>
		<path class="st0" d="M381.1,488c-9.2,0-16.6,7.5-16.6,16.6c0,9.2,7.5,16.6,16.6,16.6c9.2,0,16.6-7.5,16.6-16.6
			S390.2,488,381.1,488z"/>
		<path class="st0" d="M342.9,420.6c-2.5-1.5-5.4-2.2-8.3-2.2c-5.9,0-11.4,3.2-14.4,8.3c-4.6,7.9-1.9,18.1,6.1,22.7
			c2.5,1.5,5.4,2.2,8.3,2.2c5.9,0,11.4-3.2,14.4-8.3c2.2-3.8,2.8-8.3,1.7-12.6C349.5,426.4,346.8,422.8,342.9,420.6z"/>
		<path class="st0" d="M435.8,467c-2.5-1.5-5.4-2.2-8.3-2.2c-5.9,0-11.4,3.2-14.4,8.3c-4.6,7.9-1.9,18.1,6.1,22.7
			c2.5,1.5,5.4,2.2,8.3,2.2c5.9,0,11.4-3.2,14.4-8.3C446.5,481.8,443.7,471.6,435.8,467z"/>
		<path class="st0" d="M334.6,464.8c-2.9,0-5.8,0.8-8.3,2.2c-3.8,2.2-6.6,5.8-7.7,10.1c-1.1,4.3-0.6,8.8,1.7,12.6
			c3,5.1,8.5,8.3,14.4,8.3c2.9,0,5.8-0.8,8.3-2.2c7.9-4.6,10.7-14.8,6.1-22.7C346.1,468,340.5,464.8,334.6,464.8z"/>
		<path class="st0" d="M427.5,451.6c2.9,0,5.8-0.8,8.3-2.2c7.9-4.6,10.7-14.8,6.1-22.7c-3-5.1-8.5-8.3-14.4-8.3
			c-2.9,0-5.8,0.8-8.3,2.2c-3.8,2.2-6.6,5.8-7.7,10.1c-1.1,4.3-0.6,8.8,1.7,12.6C416.1,448.4,421.6,451.6,427.5,451.6z"/>
	</g>
</g>
</svg>
