<?xml version="1.0" encoding="utf-8"?>
<!-- Generator: Adobe Illustrator 23.0.2, SVG Export Plug-In . SVG Version: 6.00 Build 0)  -->
<svg version="1.1" id="Layer_1" xmlns="http://www.w3.org/2000/svg" xmlns:xlink="http://www.w3.org/1999/xlink" x="0px" y="0px"
	 viewBox="0 0 600 600" style="enable-background:new 0 0 600 600;" xml:space="preserve">
<style type="text/css">
	.st0{fill:#BCBCBC;}
	.st1{fill:#FFCC00;}
	.st2{fill:#039BE5;}
</style>
<title>47</title>
<g>
	<path class="st0" d="M502.5,218.2c-17.9-13.7-39.9-19.6-61.8-16.8c-9.8-51.8-47.4-94.5-98.3-110.3c-36.6-11.4-75.4-7.8-109.2,10
		c-31.5,16.5-55.2,43.5-67.5,76.6c-24.9-1.3-49.5,7.1-68.6,23.8c-21.3,18.5-33.5,45.2-33.5,73.2c0,47.7,35.8,88.9,83.2,95.7
		l12.3,1.1c1.1,0.1,290.9,0.2,291.7,0.2h0.1c47.1-0.1,85.4-38.4,85.4-85.5C536.3,259.8,523.6,234.4,502.5,218.2z"/>
	<path class="st1" d="M271.4,488.3l22.2-22.2c6.2-6.2,6.1-16.3-0.2-22.4l0,0c-6.3-6.1-6.5-16.2-0.2-22.4l25-25
		c6.1-6.1,16.1-6.1,22.2,0l0.2,0.2c6.1,6.1,6.1,16,0,22.2l-2.9,2.9c-6.2,6.2-6.1,16.3,0.2,22.4l0,0c6.3,6.1,6.5,16.2,0.2,22.4
		l-44.3,44.4c-6.1,6.1-16,6.1-22.2,0l-0.2-0.2C265.3,504.3,265.3,494.4,271.4,488.3z"/>
	<g>
		<path class="st2" d="M225.6,435L225.6,435c6.2,6.2,16.2,6.2,22.4,0l16.3-16.3c6.2-6.2,6.2-16.2,0-22.4l0,0
			c-6.2-6.2-16.2-6.2-22.4,0l-16.3,16.3C219.4,418.8,219.4,428.8,225.6,435z"/>
		<path class="st2" d="M174.4,486.3L174.4,486.3c6.2,6.2,16.2,6.2,22.4,0l19.1-19.1c6.2-6.2,6.2-16.2,0-22.4l0,0
			c-6.2-6.2-16.2-6.2-22.4,0l-19.1,19.1C168.2,470.1,168.2,480.1,174.4,486.3z"/>
		<path class="st2" d="M161.9,396.3l-16.3,16.3c-6.2,6.2-6.2,16.2,0,22.4l0,0c6.2,6.2,16.2,6.2,22.4,0l16.3-16.3
			c6.2-6.2,6.2-16.2,0-22.4l0,0C178.1,390.1,168.1,390.1,161.9,396.3z"/>
		<path class="st2" d="M371.2,486.3L371.2,486.3c6.2,6.2,16.2,6.2,22.4,0l19.1-19.1c6.2-6.2,6.2-16.2,0-22.4l0,0
			c-6.2-6.2-16.2-6.2-22.4,0l-19.1,19.1C365,470.1,365,480.1,371.2,486.3z"/>
		<path class="st2" d="M438.7,396.3l-16.3,16.3c-6.2,6.2-6.2,16.2,0,22.4l0,0c6.2,6.2,16.2,6.2,22.4,0l16.3-16.3
			c6.2-6.2,6.2-16.2,0-22.4l0,0C454.9,390.1,444.9,390.1,438.7,396.3z"/>
	</g>
</g>
</svg>
