<?xml version="1.0" encoding="utf-8"?>
<!-- Generator: Adobe Illustrator 23.0.2, SVG Export Plug-In . SVG Version: 6.00 Build 0)  -->
<svg version="1.1" id="Layer_1" xmlns="http://www.w3.org/2000/svg" xmlns:xlink="http://www.w3.org/1999/xlink" x="0px" y="0px"
	 viewBox="0 0 600 600" style="enable-background:new 0 0 600 600;" xml:space="preserve">
<style type="text/css">
	.st0{fill:#BCBCBC;}
</style>
<title>0</title>
<path class="st0" d="M501.4,128.8c0-10.4-4.1-20.2-11.4-27.6c-7.4-7.4-17.1-11.4-27.5-11.4l0,0l-315,0.1h-10c-3.4,0-6.8,0.4-9.9,1.3
	l0,0l0,0c-16.7,4.4-29,19.6-29,37.7c0,21.5,17.5,39,39,39h278.6c4.1,0,7.4,3.3,7.4,7.4s-3.3,7.4-7.4,7.4H183.8
	c-21.5,0-39,17.5-39,39s17.5,39,39,39h209c4.1,0,7.4,3.3,7.4,7.4s-3.3,7.4-7.4,7.4l-185.7,0.1c-3.5,0-6.8,0.5-10,1.3
	c-16.7,4.4-29,19.7-29,37.7c0,21.5,17.5,39,39,39h92.8c4.1,0,7.4,3.3,7.4,7.4s-3.3,7.4-7.4,7.4h-69.7c-21.5,0-39,17.5-39,39
	s17.5,39,39,39c4.1,0,7.4,3.3,7.4,7.4s-3.3,7.5-7.4,7.5l0,0c-3.5,0-6.8,0.5-10,1.3c-16.7,4.4-29,19.7-29,37.7c0,5.5,4.5,10,10,10
	h11.6c5.5,0,10-4.5,10-10c0-4.1,3.3-7.5,7.4-7.5c3.5,0,6.8-0.5,10-1.3c16.7-4.4,29-19.7,29-37.7c0-21.5-17.5-39-39-39
	c-4.1,0-7.4-3.3-7.4-7.4s3.3-7.4,7.4-7.4h69.7c21.5,0,39-17.5,39-39s-17.5-39-39-39H207c-4.1,0-7.4-3.3-7.4-7.4s3.3-7.4,7.4-7.4h10
	h175.9c10.4,0,20.2-4.1,27.6-11.4c7.4-7.4,11.4-17.2,11.4-27.6c0-21.5-17.5-39-39-39h-209c-4.1,0-7.4-3.3-7.4-7.4s3.3-7.4,7.4-7.4
	h232.2c21.5,0,39-17.5,39-39s-17.5-39-39-39H137.4c-4.1,0-7.4-3.3-7.4-7.4c0-4.1,3.3-7.5,7.4-7.5h10h315c4.1,0,7.4,3.3,7.4,7.4l0,0
	c0,5.5,4.5,10,10,10h11.6l0,0C497,138.9,501.4,134.4,501.4,128.8L501.4,128.8z"/>
</svg>
