<?xml version="1.0" encoding="utf-8"?>
<!-- Generator: Adobe Illustrator 23.0.2, SVG Export Plug-In . SVG Version: 6.00 Build 0)  -->
<svg version="1.1" id="Layer_1" xmlns="http://www.w3.org/2000/svg" xmlns:xlink="http://www.w3.org/1999/xlink" x="0px" y="0px"
	 viewBox="0 0 600 600" style="enable-background:new 0 0 600 600;" xml:space="preserve">
<style type="text/css">
	.st0{fill:#F03A47;}
</style>
<title>1</title>
<path class="st0" d="M478.3,357.8c-0.8-46.9-19.8-90.9-53.3-123.9c-33.6-33-78-51.2-125-51.2l-15.8,1.1
	c-57.3,7.7-101.6,56.9-101.6,116.3c0,11.4,1.6,22.5,4.7,32.9c-22.1-26.5-34.1-59.5-34-94.3C153.5,158,220,92.3,301.5,92.3l0,0
	c7.9,0,14.3-6.4,14.3-14.3v-3c0-7.9-6.4-14.3-14.3-14.3H300c-47.7,0-92.5,18.6-126.2,52.5c-33.7,33.8-52.2,78.7-52.1,126.4
	c0.3,95.2,76.5,173.2,171.5,177.6c2.3,0.1,4.5,0.2,6.8,0.2l0,0c0.3,0,0.5,0,0.8,0s0.6,0,0.8,0l14.2-1.1
	c57.2-7.8,101.5-57,101.6-116.3c0-11.6-1.7-22.9-4.9-33.5c20.2,24.1,32.8,54.9,34.1,88.9c1.5,39.8-13,77.7-40.9,106.7
	c-28.4,29.5-66.5,45.7-107.4,45.7h-0.1c-7.8,0-14,6.3-14,14v3.5c0,7.8,6.3,14,14,14l0,0c48.9,0,94.7-19.2,129-54.1
	C461,450.8,479.1,405.6,478.3,357.8z M300,385.8c-47.3,0-85.8-38.5-85.8-85.8s38.5-85.8,85.8-85.8c47.2,0.1,85.7,38.5,85.8,85.8
	C385.8,347.3,347.3,385.8,300,385.8z"/>
</svg>
