<?xml version="1.0" encoding="utf-8"?>
<!-- Generator: Adobe Illustrator 23.0.2, SVG Export Plug-In . SVG Version: 6.00 Build 0)  -->
<svg version="1.1" id="Layer_1" xmlns="http://www.w3.org/2000/svg" xmlns:xlink="http://www.w3.org/1999/xlink" x="0px" y="0px"
	 viewBox="0 0 600 600" style="enable-background:new 0 0 600 600;" xml:space="preserve">
<style type="text/css">
	.st0{fill:#BCBCBC;}
</style>
<title>14</title>
<g>
	<path class="st0" d="M502.5,212.1c-17.9-13.7-39.9-19.6-61.8-16.8c-9.8-51.8-47.4-94.5-98.3-110.3c-36.6-11.4-75.4-7.8-109.2,10
		c-31.5,16.5-55.2,43.5-67.5,76.6c-24.9-1.3-49.5,7.1-68.6,23.8c-21.3,18.5-33.5,45.2-33.5,73.2c0,47.7,35.8,88.9,83.2,95.7
		l12.3,1.1c1.1,0.1,290.9,0.2,291.7,0.2h0.1c47.1-0.1,85.4-38.4,85.4-85.5C536.3,253.7,523.6,228.3,502.5,212.1z"/>
	<g>
		<path class="st0" d="M218.5,395.6c-9.2,0-16.6,7.5-16.6,16.6c0,9.2,7.5,16.6,16.6,16.6c9.2,0,16.6-7.5,16.6-16.6
			C235.2,403,227.7,395.6,218.5,395.6z"/>
		<path class="st0" d="M218.5,442c-9.2,0-16.6,7.5-16.6,16.6c0,9.2,7.5,16.6,16.6,16.6c9.2,0,16.6-7.5,16.6-16.6
			C235.2,449.4,227.7,442,218.5,442z"/>
		<path class="st0" d="M218.5,488.4c-9.2,0-16.6,7.5-16.6,16.6c0,9.1,7.5,16.6,16.6,16.6c9.2,0,16.6-7.5,16.6-16.6
			S227.7,488.4,218.5,488.4z"/>
		<path class="st0" d="M182,420.3c-2.5-1.5-5.4-2.2-8.3-2.2c-5.9,0-11.5,3.2-14.4,8.4c-2.2,3.9-2.8,8.3-1.6,12.6
			c1.2,4.3,3.9,7.9,7.8,10.1c2.5,1.5,5.4,2.2,8.3,2.2c5.9,0,11.5-3.2,14.4-8.4C192.7,435,190,424.8,182,420.3z"/>
		<path class="st0" d="M273.3,467.4c-2.5-1.5-5.4-2.2-8.3-2.2c-5.9,0-11.4,3.2-14.4,8.3c-2.2,3.8-2.8,8.3-1.7,12.6s3.9,7.9,7.7,10.1
			c2.5,1.5,5.4,2.2,8.3,2.2c5.9,0,11.4-3.2,14.4-8.3C283.9,482.2,281.2,472,273.3,467.4z"/>
		<path class="st0" d="M172.1,465.2c-2.9,0-5.8,0.8-8.3,2.2c-3.8,2.2-6.6,5.8-7.7,10.1c-1.1,4.3-0.6,8.8,1.7,12.6
			c3,5.1,8.5,8.3,14.4,8.3c2.9,0,5.8-0.8,8.3-2.2c3.8-2.2,6.6-5.8,7.7-10.1c1.1-4.3,0.6-8.8-1.7-12.6
			C183.5,468.4,178,465.2,172.1,465.2z"/>
		<path class="st0" d="M265,452c2.9,0,5.8-0.8,8.3-2.2c3.8-2.2,6.6-5.8,7.7-10.1c1.1-4.3,0.6-8.8-1.7-12.6c-3-5.1-8.5-8.3-14.4-8.3
			c-2.9,0-5.8,0.8-8.3,2.2c-7.9,4.6-10.7,14.8-6.1,22.7C253.6,448.8,259.1,452,265,452z"/>
	</g>
</g>
</svg>
