<?xml version="1.0" encoding="utf-8"?>
<!-- Generator: Adobe Illustrator 23.0.2, SVG Export Plug-In . SVG Version: 6.00 Build 0)  -->
<svg version="1.1" id="Layer_1" xmlns="http://www.w3.org/2000/svg" xmlns:xlink="http://www.w3.org/1999/xlink" x="0px" y="0px"
	 viewBox="0 0 600 600" style="enable-background:new 0 0 600 600;" xml:space="preserve">
<style type="text/css">
	.st0{fill:#BCBCBC;}
</style>
<title>20</title>
<g>
	<path class="st0" d="M497.3,315.9c22.3,0,40.4-18.9,38.9-41.5c-1.3-20.6-18.9-36.5-39.6-36.5H149.3c-3.5,0-6.7-2.3-7.5-5.8
		c-1-4.8,2.6-9.1,7.2-9.1l308.2-0.4l0.5-0.1c31.5-3.5,55.3-30.1,55.3-61.8c0-34.3-27.9-62.2-62.2-62.2h-0.7
		c-8.4,0-15.1,6.8-15.1,15.1v1.3c0,8.4,6.8,15.1,15.1,15.1h0.7c18.2,0,32.7,15.9,30.4,34.6c-0.7,5.4-2.9,10.6-6.3,14.9
		c-6,7.5-14.7,11.7-24.1,11.7H445h-10H149.8c-20.7,0-38.3,15.8-39.6,36.5c-1.4,22.6,16.6,41.5,38.9,41.5h348c3.5,0,6.7,2.3,7.5,5.8
		c1.1,4.8-2.6,9.1-7.2,9.1H102.7c-22.3,0-40.4,18.9-38.9,41.5c1.3,20.6,18.9,36.5,39.6,36.5h370.5c3.5,0,6.7,2.3,7.5,5.8
		c1,4.8-2.6,9.1-7.2,9.1h-279l-6.4,0.4h-0.3c-32.2,3.6-56.4,31.3-55.3,64c1.1,33.1,30,60.1,63.1,60.1l0,0c8.2,0,14.9-6.7,14.9-14.9
		V485c0-8.3-6.7-15.2-15-15.1c-16.2,0.1-30.1-12.2-31.3-28.3c-1.3-17.9,12.9-33,30.5-33H474l10-1.3c17.2-4.6,29.7-20.5,29-39.3
		c-0.8-20.6-19.1-37.4-39.7-37.4H102.9c-3.5,0-6.7-2.3-7.5-5.8c-1.1-4.8,2.6-9.1,7.2-9.1h384.7l0,0h10V315.9z"/>
</g>
</svg>
