<?xml version="1.0" encoding="utf-8"?>
<!-- Generator: Adobe Illustrator 23.0.2, SVG Export Plug-In . SVG Version: 6.00 Build 0)  -->
<svg version="1.1" id="Layer_1" xmlns="http://www.w3.org/2000/svg" xmlns:xlink="http://www.w3.org/1999/xlink" x="0px" y="0px"
	 viewBox="0 0 600 600" style="enable-background:new 0 0 600 600;" xml:space="preserve">
<style type="text/css">
	.st0{fill:#63CCFF;}
</style>
<title>23</title>
<g>
	<path class="st0" d="M415.2,145c-34.2,0.5-61.3,29-61.3,63.2l0,0c0,8.2,6.6,14.8,14.8,14.8h2c8.2,0,14.8-6.6,14.8-14.8v-0.3
		c0-16.7,13.2-30.9,29.9-31.3c17.5-0.4,31.7,13.9,31.3,31.3c-0.4,16.7-14.5,29.9-31.3,29.9H137.5c-8.7,0-15.8,7.1-15.8,15.8l0,0
		c0,8.7,7.1,15.8,15.8,15.8h278.9l0,0l6.3-0.4h0.3c31.5-3.5,55.3-30.1,55.3-61.9C478.3,172.6,449.9,144.5,415.2,145z"/>
	<path class="st0" d="M283.7,331.1h-0.3l-6.3-0.4l0,0H137.5c-8.7,0-15.8,7.1-15.8,15.8l0,0c0,8.7,7.1,15.8,15.8,15.8h138.6
		c16.7,0,30.9,13.2,31.3,29.9c0.4,17.5-13.9,31.7-31.3,31.3c-16.7-0.4-29.9-14.5-29.9-31.3l0,0c0-8.4-6.8-15.1-15.1-15.1h-1.4
		c-8.4,0-15.1,6.8-15.1,15.1v0.7c0,34.3,28,62.2,62.2,62.2l0,0c34.3,0,62.2-27.9,62.2-62.2C339,361.2,315.2,334.6,283.7,331.1z"/>
	<path class="st0" d="M137.5,315.9h232.2c8.7,0,15.8-7.1,15.8-15.8l0,0c0-8.7-7.1-15.8-15.8-15.8H137.5c-8.7,0-15.8,7.1-15.8,15.8
		l0,0C121.7,308.8,128.8,315.9,137.5,315.9z"/>
</g>
</svg>
