<?xml version="1.0" encoding="utf-8"?>
<!-- Generator: Adobe Illustrator 23.0.2, SVG Export Plug-In . SVG Version: 6.00 Build 0)  -->
<svg version="1.1" id="Layer_1" xmlns="http://www.w3.org/2000/svg" xmlns:xlink="http://www.w3.org/1999/xlink" x="0px" y="0px"
	 viewBox="0 0 600 600" style="enable-background:new 0 0 600 600;" xml:space="preserve">
<style type="text/css">
	.st0{fill:#63CCFF;}
	.st1{fill:#B3E5FC;enable-background:new    ;}
	.st2{fill:#039BE5;}
</style>
<title>25</title>
<g>
	<path class="st0" d="M362.1,339.1V126.8c0-33.4-25.9-61.5-59.2-63.1c-35.7-1.7-65.2,26.9-65.2,62.2v213.2
		c-28.8,20.2-46.4,53.7-46.4,88.6c0.1,59.9,48.8,108.6,108.7,108.7l0,0c59.9-0.1,108.6-48.8,108.7-108.7
		C408.6,392.7,390.9,359.3,362.1,339.1z M342.1,363.6c23,15.1,36.1,40.4,34.8,67.9c-1.9,39.3-33.7,71.1-73,73.1
		c-44.3,2.2-81-33.2-81-77c0-26.1,13-49.7,34.9-64.1c2.5-1.6,4.7-3.7,6.4-6.1l0.8-1.1c2.8-4,4.4-8.7,4.4-13.6v-217
		c0-16.9,13.8-30.6,30.6-30.6c16.9,0,30.6,13.8,30.6,30.6v217c0,4.9,1.5,9.6,4.4,13.6l0.8,1.1C337.4,360,339.6,362,342.1,363.6z"/>
	<path class="st1" d="M342.1,363.6c23,15.1,36.1,40.4,34.8,67.9c-1.9,39.3-33.7,71.1-73,73.1c-44.3,2.2-81-33.2-81-77
		c0-26.1,13-49.7,34.9-64.1c2.5-1.6,4.7-3.7,6.4-6.1l0.8-1.1c2.8-4,4.4-8.7,4.4-13.6v-217c0-16.9,13.8-30.6,30.6-30.6
		c16.9,0,30.6,13.8,30.6,30.6v217c0,4.9,1.5,9.6,4.4,13.6l0.8,1.1C337.4,360,339.6,362,342.1,363.6z"/>
	<path class="st2" d="M299.9,484.1c-0.6,0-1.3,0-1.9,0c-28-1-50.7-23.2-53.3-51.1l-0.3-3.7h111.3l-0.4,4
		c-1.9,20.7-14.9,38.9-34.1,46.7c-2.4,1-4.8,1.8-7.3,2.4C309.2,483.5,304.5,484.1,299.9,484.1L299.9,484.1z"/>
</g>
</svg>
