<?xml version="1.0" encoding="utf-8"?>
<!-- Generator: Adobe Illustrator 23.0.2, SVG Export Plug-In . SVG Version: 6.00 Build 0)  -->
<svg version="1.1" id="Layer_1" xmlns="http://www.w3.org/2000/svg" xmlns:xlink="http://www.w3.org/1999/xlink" x="0px" y="0px"
	 viewBox="0 0 600 600" style="enable-background:new 0 0 600 600;" xml:space="preserve">
<style type="text/css">
	.st0{fill:#FFFFFF;}
</style>
<title>26</title>
<g>
	<path class="st0" d="M146.8,441.9c-47.4-6.8-83.2-48-83.2-95.7c0-25.8,10.2-50.2,28.7-68.6c18.4-18.3,42.7-28.4,68.4-28.4
		c0,0,0,0,0.1,0c3,0,5.7-1.8,6.8-4.5c10.1-24.4,26.6-45.3,48.2-61c24.3-17.6,54.2-27.3,84.1-27.3c14.4,0,28.8,2.2,42.7,6.5
		c48.8,15.2,85.3,55,96.9,103.9c0.8,3.5,4,5.9,7.6,5.7c1.5-0.1,3.1-0.1,4.6-0.1c22.4,0,43.6,9,59.7,25.2s24.9,37.7,24.9,60.3
		c-0.1,47.1-38.4,85.4-85.4,85.4H160.5c-0.3,0-0.5,0-0.8,0l-1.5-0.2v0.4L146.8,441.9z"/>
</g>
</svg>
