<?xml version="1.0" encoding="utf-8"?>
<!-- Generator: Adobe Illustrator 23.0.2, SVG Export Plug-In . SVG Version: 6.00 Build 0)  -->
<svg version="1.1" id="Layer_1" xmlns="http://www.w3.org/2000/svg" xmlns:xlink="http://www.w3.org/1999/xlink" x="0px" y="0px"
	 viewBox="0 0 600 600" style="enable-background:new 0 0 600 600;" xml:space="preserve">
<style type="text/css">
	.st0{fill:#FFCC00;}
</style>
<title>34</title>
<g>
	<path class="st0" d="M405.6,405.5L405.6,405.5c-6.2,6.2-6.3,16.2-0.1,22.4l18.4,18.5l0.2,0.1l14.3,14.3c6.2,6.2,16.2,6.2,22.4,0
		l0,0c6.2-6.2,6.2-16.2,0-22.4l-22.2-22.2L428,405.6C421.9,399.3,411.8,399.3,405.6,405.5z"/>
	<path class="st0" d="M393.2,206.8c-24.9-24.9-58-38.6-93.3-38.6s-68.3,13.7-93.1,38.6c-26,26-39.8,61.4-38.6,97.9
		c0.1,2.2,0.2,4.4,0.4,6.5c0.3,4.6,1,9.1,2,13.6c0.9,4.8,2,9.4,3.4,13.9c16.7,54.8,67.5,93.2,125.8,93.2c8.2,0,16.4-0.8,24.5-2.3
		c10.1-1.9,19.8-4.9,29.1-9c4.5-2,8.8-4.2,13.1-6.7c4-2.3,7.8-4.8,11.4-7.6c2.8-2,5.5-4.1,8.1-6.3c2.5-2.1,4.9-4.4,7.2-6.8
		c24.8-24.7,38.5-57.7,38.6-92.8C431.9,265,418.2,231.8,393.2,206.8z"/>
	<path class="st0" d="M139.3,460.7L139.3,460.7c6.2,6.2,16.2,6.2,22.4,0l32.8-32.8c6.2-6.2,6.2-16.2,0-22.4l0,0
		c-6.2-6.2-16.2-6.2-22.4,0l-32.8,32.8C133.1,444.5,133.1,454.6,139.3,460.7z"/>
	<path class="st0" d="M460.7,139.3L460.7,139.3c-6.2-6.2-16.2-6.2-22.4,0l-32.8,32.8c-6.2,6.2-6.2,16.2,0,22.4l0,0
		c6.2,6.2,16.2,6.2,22.4,0l32.8-32.8C466.9,155.5,466.9,145.5,460.7,139.3z"/>
	<path class="st0" d="M139.1,284.2H92.7c-8.7,0-15.8,7.1-15.8,15.8l0,0c0,8.7,7.1,15.8,15.8,15.8h46.4c8.7,0,15.8-7.1,15.8-15.8l0,0
		C154.9,291.3,147.8,284.2,139.1,284.2z"/>
	<path class="st0" d="M445.1,300L445.1,300c0,8.7,7.1,15.8,15.8,15.8h46.4c8.7,0,15.8-7.1,15.8-15.8l0,0c0-8.7-7.1-15.8-15.8-15.8
		h-46.4C452.2,284.2,445.1,291.3,445.1,300z"/>
	<path class="st0" d="M194.5,172.1l-32.8-32.8c-6.2-6.2-16.2-6.2-22.4,0l0,0c-6.2,6.2-6.2,16.2,0,22.4l32.8,32.8
		c6.2,6.2,16.2,6.2,22.4,0l0,0C200.6,188.3,200.6,178.3,194.5,172.1z"/>
	<path class="st0" d="M300,76.9L300,76.9c-8.7,0-15.8,7.1-15.8,15.8v46.4c0,8.7,7.1,15.8,15.8,15.8l0,0c8.7,0,15.8-7.1,15.8-15.8
		V92.7C315.8,83.9,308.7,76.9,300,76.9z"/>
	<path class="st0" d="M300,523.1L300,523.1c8.7,0,15.8-7.1,15.8-15.8v-46.4c0-8.7-7.1-15.8-15.8-15.8l0,0c-8.7,0-15.8,7.1-15.8,15.8
		v46.4C284.2,516.1,291.3,523.1,300,523.1z"/>
</g>
</svg>
