<?xml version="1.0" encoding="utf-8"?>
<!-- Generator: Adobe Illustrator 23.0.2, SVG Export Plug-In . SVG Version: 6.00 Build 0)  -->
<svg version="1.1" id="Layer_1" xmlns="http://www.w3.org/2000/svg" xmlns:xlink="http://www.w3.org/1999/xlink" x="0px" y="0px"
	 viewBox="0 0 600 600" style="enable-background:new 0 0 600 600;" xml:space="preserve">
<style type="text/css">
	.st0{fill:#BCBCBC;}
	.st1{fill:#039BE5;}
</style>
<title>5</title>
<g>
	<path class="st0" d="M502.5,212c-17.9-13.7-39.9-19.6-61.8-16.8c-9.8-51.8-47.4-94.5-98.3-110.3c-36.6-11.4-75.4-7.8-109.2,10
		c-31.5,16.5-55.2,43.5-67.5,76.6c-24.9-1.3-49.5,7.1-68.6,23.8c-21.3,18.5-33.5,45.2-33.5,73.2c0,47.7,35.8,88.9,83.2,95.7
		l12.3,1.1c1.1,0.1,290.9,0.2,291.7,0.2h0.1c47.1-0.1,85.4-38.4,85.4-85.5C536.3,253.6,523.6,228.2,502.5,212z"/>
	<g>
		<path class="st1" d="M241.7,400.1l-16.3,16.3c-6.2,6.2-6.2,16.2,0,22.4l0,0c6.2,6.2,16.2,6.2,22.4,0l16.3-16.3
			c6.2-6.2,6.2-16.2,0-22.4l0,0C257.9,394,247.9,394,241.7,400.1z"/>
		<path class="st1" d="M174.2,490.1L174.2,490.1c6.2,6.2,16.2,6.2,22.4,0l19.1-19.1c6.2-6.2,6.2-16.2,0-22.4l0,0
			c-6.2-6.2-16.2-6.2-22.4,0l-19.1,19.1C168,473.9,168,483.9,174.2,490.1z"/>
		<path class="st1" d="M161.7,400.1l-16.3,16.3c-6.2,6.2-6.2,16.2,0,22.4l0,0c6.2,6.2,16.2,6.2,22.4,0l16.3-16.3
			c6.2-6.2,6.2-16.2,0-22.4l0,0C177.9,394,167.9,394,161.7,400.1z"/>
	</g>
	<g>
		<circle class="st0" cx="357.8" cy="412.1" r="16.6"/>
		<circle class="st0" cx="357.8" cy="458.6" r="16.6"/>
		<path class="st0" d="M357.8,488.4c-9.2,0-16.6,7.4-16.6,16.6s7.4,16.6,16.6,16.6s16.6-7.4,16.6-16.6S367,488.4,357.8,488.4z"/>
		<path class="st0" d="M317.1,452c0.2,0,0.3,0,0.4,0c9.1,0,16.3-7.1,16.6-16.2c0.1-4.4-1.5-8.6-4.5-11.9c-3-3.2-7.2-5.1-11.6-5.2
			c-0.2,0-0.3,0-0.5,0c-9.1,0-16.3,7.1-16.6,16.2C300.7,444.1,308,451.7,317.1,452z"/>
		<path class="st0" d="M398,465.2c-0.5,0-0.9,0-1.4,0.1c-4.4,0.4-8.4,2.4-11.3,5.8s-4.2,7.7-3.9,12.1c0.7,8.5,8,15.2,16.5,15.2
			c0.5,0,0.9,0,1.4-0.1c9.1-0.8,15.9-8.8,15.2-17.9C413.8,471.9,406.6,465.2,398,465.2z"/>
		<path class="st0" d="M317.6,465.2c-1.5,0-3.1,0.2-4.6,0.6c-4.3,1.2-7.8,4-10,7.9s-2.7,8.4-1.5,12.6c2,7.1,8.6,12.1,16,12.1
			c1.5,0,3.1-0.2,4.6-0.6c8.8-2.5,13.9-11.7,11.4-20.5C331.6,470.1,325,465.2,317.6,465.2z"/>
		<path class="st0" d="M398.1,451.9c0.9,0,1.9-0.1,2.8-0.2c4.4-0.8,8.2-3.2,10.7-6.8s3.5-8,2.8-12.4c-1.4-8-8.3-13.8-16.3-13.8
			c-0.9,0-1.9,0.1-2.8,0.2c-9,1.6-15.1,10.2-13.5,19.2C383.1,446.1,390,451.9,398.1,451.9z"/>
	</g>
</g>
</svg>
